<?xml version="1.0" encoding="UTF-8" standalone="no"?>
<svg
   xmlns:dc="http://purl.org/dc/elements/1.1/"
   xmlns:cc="http://creativecommons.org/ns#"
   xmlns:rdf="http://www.w3.org/1999/02/22-rdf-syntax-ns#"
   xmlns:svg="http://www.w3.org/2000/svg"
   xmlns="http://www.w3.org/2000/svg"
   xmlns:sodipodi="http://sodipodi.sourceforge.net/DTD/sodipodi-0.dtd"
   xmlns:inkscape="http://www.inkscape.org/namespaces/inkscape"
   id="Layer_1"
   data-name="Layer 1"
   viewBox="0 0 315.65 287.07"
   version="1.1"
   inkscape:version="0.91 r13725"
   sodipodi:docname="dallas.svg">
  <metadata
     id="metadata3644">
    <rdf:RDF>
      <cc:Work
         rdf:about="">
        <dc:format>image/svg+xml</dc:format>
        <dc:type
           rdf:resource="http://purl.org/dc/dcmitype/StillImage" />
      </cc:Work>
    </rdf:RDF>
  </metadata>
  <sodipodi:namedview
     pagecolor="#ffffff"
     bordercolor="#666666"
     borderopacity="1"
     objecttolerance="10"
     gridtolerance="10"
     guidetolerance="10"
     inkscape:pageopacity="0"
     inkscape:pageshadow="2"
     inkscape:window-width="1920"
     inkscape:window-height="1056"
     id="namedview3642"
     showgrid="false"
     inkscape:zoom="3.2013097"
     inkscape:cx="186.04885"
     inkscape:cy="156.02989"
     inkscape:window-x="0"
     inkscape:window-y="24"
     inkscape:window-maximized="1"
     inkscape:current-layer="Layer_3" />
  <defs
     id="defs3607">
    <style
       id="style3609">.cls-1{fill:#51459c;stroke:#010101;stroke-linecap:square;stroke-linejoin:bevel;stroke-width:3.07px;}</style>
  </defs>
  <title
     id="title3611">DallasCountyStuff</title>
  <g
     id="Layer_3"
     data-name="Layer 3">
    <path
       class="cls-1"
       d="m 323.23,489.52 -4.16,0 -2.63,-4 -0.12,0.08 -0.11,0.07 -0.08,0.06 -0.26,0.16 -0.08,0 -0.22,0.1 -0.63,0.29 -0.32,0.14 -0.34,0.13 -1,0.39 -0.35,0.16 -0.47,0.22 -1.12,0.54 -0.79,0.4 0,0 -0.55,0.26 -0.06,0 -0.1,0 -0.1,0 -0.31,0.15 -0.61,0.31 -0.46,0.23 -0.47,0.26 -2,1 -0.5,0.24 -1,0.49 -3.3,-4.81 -2,-2.86 -0.42,0.2 -0.66,0.32 -0.08,0 -2.51,-3.69 1.26,-0.61 3.21,-1.56 -0.27,-0.39 -0.1,-0.15 -1.07,-1.56 -0.71,-1 -0.48,-0.69 -1.61,-2.35 -0.52,-0.76 -0.79,0.39 -4.95,2.39 0,2.18 -8.29,0 -1.06,0 -0.1,0 -0.61,0 -0.33,0 0,0.7 0,1.58 0,6.35 0,2.61 0,2.38 0,0.6 0,1.53 0,0.78 0,3 0,1.18 0,4.92 0,0.14 0,0.06 0.06,0.41 0,0.12 0.11,0.65 0,0.23 0,0.22 0,1.69 0,1.1 0,2.65 0,1.54 0,0.76 0,1.61 0,6.14 0,0.68 0,3.36 0,1.5 0,2.16 0,1.12 0,0.51 0,2.76 0,2.1 0,1.54 0.08,1.62 0,0.15 1,0 5,0 4.39,0 2.29,0 2.87,0 5.23,0 3,0 0.21,0 0.19,0 0.57,0 0.33,0.05 1.59,-0.07 0.2,0 0.86,0.06 4.47,0 0.21,0 11.62,0 3.54,0 0.57,0 4.07,0 7.52,0.05 1.02,0 7.41,0.07 0.13,-0.05 0.54,-0.25 0.63,-0.25 0.77,-0.3 1.13,-0.45 0.33,-0.15 0.65,-0.3 0.35,-0.18 0.06,0 0,0 0.31,-0.16 -2.69,-3.81 -1.19,-1.71 0.27,-0.16 0,0 0,0 0,0 0,0 -0.1,0 0,0 0,0 0,0 -0.06,0 0,0 0,0 0,0 0,0 -0.54,0 0,0 0,0 0,0 0,0 0,-0.09 0,-0.12 0,-0.09 0,-0.06 0,0 0,0 0,-0.1 0,0 0,0 0,0 -0.13,0 -0.06,0 -0.11,0 0,0 0,0 0,-0.25 0,-0.05 0,0 0,0 0,0 0,0 -0.13,0 0,0 -0.05,0 -0.09,-0.06 0,0 0,0 0,-0.06 0,-0.1 0,-0.07 0,0 0,-0.16 0,0 0,0 -0.18,0 -0.15,0 0,0 0,0 0,0 0,0 0,0 0,-0.14 0.06,-0.08 0,0 0,0 0,-0.25 0,0 0,0 -0.06,0 -0.06,0 -0.07,0.05 -0.16,0 0,0 0,-0.07 0,-0.21 0,0 0,0 -0.17,0 -0.16,0 -0.22,0 0,0 0,0 0,0 0,0 0,-0.05 0,0 0,0 0,0 0,0 -0.12,0 -0.19,0 -0.12,0 0,0 0,-0.07 0,0 -0.07,-0.07 -0.06,-0.06 0,0 -0.24,0 0,0 0,0 0,0 0,0 0,0 -0.13,0 0,0 0,0 0,0 0,-0.32 0,0 0,0 0,0 -0.33,0 0,0 -0.2,0 -0.06,0 -0.17,0 -0.06,0 -0.32,0 -0.06,0 -0.06,-0.05 0,0 0,0 0,-0.09 0,0 0,0 0,0 0,0 0,0 -0.09,0 0,0 0,0 0,0 0,0 0,-0.27 0,-0.06 0,0 0,0 0,0 0,0 0,0 -0.05,0 -0.12,-0.06 0,0 0,-0.09 0,-0.05 0,-0.11 0,0 0,0 -0.06,0 -0.08,0 -0.25,-0.15 -0.09,-0.07 -0.24,-0.21 -0.06,0 -0.06,0 -0.09,0 0,0 -0.06,0 0,0 0,0 0,0 0,0 0,0 0,-0.21 0,0 -0.18,0 0,0 0,0.07 0,0 0,0.06 -0.16,0 0,0 0,0 0,0 0,-2.32 0,0 0,0 0,-0.11 0.35,-1 0.17,-0.48 1.24,-1.34 0.22,0.15 0.21,0.15 2.43,-1.52 -1.28,-2 0.5,-0.22 2.14,-0.93 0.16,-2.74 -0.61,0 -0.31,0 0,-0.18 0.06,-3.43 0,-0.11 0,-2.06 0,-4.4 -5.96,0 0,-1.89 -0.14,0 0,-6.81 -1,0 0,0 -0.09,0 -9,0 0,-4.41 -1.74,0 -0.83,0 -0.2,0.09 -0.12,0.06 -0.68,0.18 -0.38,0.18 -0.07,-0.11 -0.36,-0.54 -0.66,0 -0.23,1.33 -0.26,1.54 -0.24,1.38 -0.14,0 0,-0.06 -0.19,0 0.14,-0.79 0.3,-1.87 0.24,-1.47 0,-0.06 -1,0 -1.87,0"
       transform="translate(-148.49,-252.36)"
       id="path3614"
       style="fill:#51459c;stroke:#010101;stroke-width:1;stroke-linecap:square;stroke-linejoin:bevel;stroke-miterlimit:4;stroke-dasharray:none"
       name="Lancaster ISD"
       inkscape:connector-curvature="0" />
    <path
       class="cls-1"
       d="m 182.77,466.41 -0.1,0.09 0,0 -0.06,0.17 0,0.17 -0.08,0.09 -0.19,0.15 -0.16,0.14 -0.17,0.09 -0.16,0.06 -0.22,0 -0.26,0.05 -0.21,0.08 -0.24,0.12 -0.17,0.16 -0.1,0.15 0,0 0,0.17 0,0.21 0.06,0.15 0.09,0.15 0.09,0.08 0.1,0.08 0.12,0 0.19,0 0.51,0 0.25,0 0.22,0 0.14,0 0.13,0 0.12,0.05 0.08,0 0.11,-0.05 0.13,0 0.23,0 0,0.47 0,0.09 0,0.07 -0.08,0.16 -0.12,0.18 -0.09,0.16 -0.07,0.13 -0.08,0.13 -0.1,0.28 -0.06,0.13 -0.08,0.13 -0.1,0.2 0,0 0,0.06 0,0.22 0,0.18 0,0.07 0,0.07 -0.06,0.07 -0.08,0.07 -0.09,0.05 -0.11,0.05 -0.07,0 -0.06,0 -0.07,0 -0.5,-0.16 -0.18,0 -0.2,0 -0.13,0 -0.12,0.06 -0.08,0.08 -0.07,0.07 0,0.07 0,0.09 0,0.11 0,0.15 0,0.19 0,0.6 0,0.09 -0.07,0.07 -0.21,0.1 -0.68,0.24 -0.11,0 0,0 0,0 0,0.08 0,0.07 -0.09,0.09 0.1,0 3.12,5.42 0,0.34 0.08,0.15 2.55,3 2.92,4.22 0.5,0.73 0.19,0.27 1.67,2.45 0.13,0.19 7.44,-3.84 0.84,-0.44 0.08,0 0.37,-0.18 0.08,0 0.26,0.36 0.12,0.24 0.12,0.21 0.32,0.32 0.29,0.4 0.06,0.09 0.47,0.78 0,0.1 1.9,0 0.18,0 0.39,0.07 1.39,0.32 1.47,0.36 0.16,0 0.1,0 0.59,0 0.21,0 0,-2.27 1,1.17 0.74,0.73 1.27,0.14 1.13,1.05 0.46,0.4 1.25,1.12 0.06,-0.09 0.07,-0.12 0.86,-1.17 0,-0.06 0.34,-0.44 0.4,-0.5 0.15,-0.13 1.61,0 1.29,0 0,0.46 0,0 0,0.41 0,0.22 0,3.2 0,0.06 2.26,0 1.5,0 1.33,0 0,1.49 0.14,2.68 -0.05,3.57 0,1 1,0 12.72,0 0.89,0 0.65,0 0,-3.22 0.07,0 0,0 0.11,0 0,0 0.16,-0.09 0.06,0 0,0 0.05,-0.06 0.06,-0.05 0.07,0 0.08,0 0.08,0 0.05,0 0.05,0 0,0 0.09,-0.11 0,0 0.08,-0.07 0,0 0.14,-0.08 0.07,0 0,0 0,0 0,-0.06 0,0 0,-0.06 0,0 0,0 0.07,-0.07 0.08,-0.07 0,0 0.17,0 0,0 0.05,-0.06 0.09,-0.11 0,0 0,0 0,0 0.05,0 0,-0.06 0,-0.1 0.06,-0.1 0.07,-0.07 0,0 0,0 0,0 0,0 0.76,0 0.13,0 0.06,0 0.11,-0.07 0.16,-0.08 0.11,0 0,0 0,0 0.11,0 0.06,0 0.12,0 0.07,0.08 0,0 0.1,0 0,0 0.11,0 0.07,0 0.06,0 0,0 0.15,0 0.06,0 0.1,0 0.07,0.05 0,0 0,0.07 0,0.06 0,0 0,-0.89 0,0 0.08,0 0.12,-0.05 0.09,0 0.06,0 0.11,0 0,0 0.05,0 0.06,0 0,0 0,-0.05 0.06,-0.12 0,0 0,0 0.06,0 0.15,0 0.08,0 0.07,0 0.16,0 0,0 0,0 0,0 0,0 0,-0.05 0,-0.13 0,0 0,0 0.25,0 0,0 0,0 0,-0.06 0,0 0,0 0.08,0 0,0 0,0 0,0 0,-0.1 0,0 0,0 0.06,0 0.06,0 0.06,0 0.06,0 0,0 0,0 0.09,-0.12 0.07,-0.16 0,0 0,0 0,-0.11 0,0 0,0 -0.05,0 -0.09,0 0,0 0,-0.06 0,-0.11 0.08,-0.11 0,-0.07 0,-0.09 -0.25,0 -0.11,0 -0.1,0 -0.06,0 -0.05,0 0,0 0,0 -0.22,0 -0.05,0 -0.06,0 -0.06,-0.05 -0.08,-0.12 0,0 0,0 -0.17,-0.05 -0.07,0 -0.06,0 -0.06,0 -0.07,0 -0.08,0 -0.47,0 -0.11,0 -0.08,0 -0.06,-0.05 -0.07,-0.07 -0.11,-0.15 -0.08,-0.08 -0.11,0 -0.06,0 0,0 -0.17,-0.13 -0.21,-0.15 -0.08,0 -0.2,0 -0.17,0 -0.39,0.09 0.08,-0.08 -0.18,0 -0.4,-0.15 -0.27,0 -0.06,0 0,-0.05 0,0 0,0 0,0 -0.06,-0.05 0,0 -0.23,-0.09 -0.06,0 -0.12,0 -0.1,0 0,0 -0.08,0 -0.08,0 -0.25,-0.05 -0.05,0 0.74,-0.11 -0.11,-0.89 0.14,0 0,-0.88 -0.11,0 0,-0.39 -0.09,0 0,0 0,0 -0.08,0 0,-0.07 0,-0.07 0,0 -0.06,-0.11 -0.08,-0.13 0,0 -0.18,0 -0.11,-0.14 -0.21,0 0,-0.07 0,-0.06 0,0 -0.06,-0.07 -0.05,-0.05 0.15,0 3.62,0 0.13,0 3.69,0 1.54,0 0,-0.3 0,-1 0,-2.91 0.06,0 0.16,-0.12 -2.7,0.08 0,-8.12 0,0 0,-0.64 2.63,0 0,-0.76 0,-1.86 0,-0.46 0,0 0,-1.2 0.04,0 -0.63,0 -0.62,0 -0.53,0 -0.53,0 -0.28,0 -0.57,-0.08 -0.73,0 -0.82,0.06 -1.42,0.1 -0.42,0 -3.16,-0.06 -0.15,0 0,-5.7 0,-1.06 0,-6.37 1,0 0.88,0 3.37,0 0,-5.94 0,-1 0,-0.73 0,-0.15 0,-0.12 0,-0.19 0,-0.31 -0.06,-1.26 0,-0.93 -0.5,0 -0.33,0 -0.42,0 -1.54,0 -0.15,0 -1.56,0 -0.12,0 -0.11,0 -0.08,0 -0.11,0 -0.09,0 -0.09,0 -0.07,0 0,-0.37 0,-0.46 0,-0.4 -1.33,0 -2.29,0 0,-0.36 0,-0.42 -0.74,0 -1.52,0 -0.66,0 -0.56,0 0,0.18 -0.51,0 0,-0.06 -2.66,0 0,-4.52 0,-1.77 0,-0.45 -8.61,0 -0.29,0 -0.45,-0.07 -0.19,0 -0.11,0 -2.84,0 -0.42,0 -0.18,0 -0.18,0 -0.29,0.06 -0.29,0.06 -0.23,0 -0.17,0 -0.17,0 -0.17,0 -0.27,0 -0.24,0 -3.79,0 -1.32,-0.09 -0.68,0 -0.67,0 -3.33,0 -0.17,0 -0.13,0 -0.09,0 0,0 0,0.22 -0.49,0 0.05,11.11 0,2.89 3,0 0.59,0.26 0.71,0.31 0.77,0.34 -0.07,2.18 -20,0 0,0.05 0,0.17 -0.07,0.12 -0.07,0.12 -0.05,0.08 -0.07,0.09 -0.11,0.08 -0.12,0.06 -0.07,0 -0.06,0.09 0,0.1 0,0.18 0,0.19 -0.06,0.21 -0.11,0.19 -0.19,0.21 -0.22,0.16 -0.28,0.18 -0.19,0.17 -0.15,0.15 -0.1,0.14 0,0.1 0.06,0.07 0.52,0.15 0.07,0.15 0,0 0,0.07 0,0.12 0,0.17 -0.05,0.17 -0.15,0.18 -0.13,0.15 -0.13,0.19 -0.15,0.21 -0.1,0.13 0,0.06 -0.13,0.2 -0.14,0.27 -0.18,0.24 -0.3,0.24 -1,0.61 -0.2,0.16 -0.07,0.16 0,0.12 0,0.18 0,0.13 -0.07,0.13 -0.11,0.13 -0.07,0.07"
       transform="translate(-148.49,-252.36)"
       id="path3616"
       style="fill:#51459c;stroke:#010101;stroke-width:1;stroke-linecap:square;stroke-linejoin:bevel;stroke-miterlimit:4;stroke-dasharray:none"
       name="Duncanville ISD"
       inkscape:connector-curvature="0" />
    <path
       class="cls-1"
       d="m 279.19,497.32 0,-0.32 0,-1.18 0,-2 -0.81,0 -0.23,0 -0.46,0 -0.28,-0.05 -0.2,0 -0.36,-0.05 -0.74,0 -0.58,0 -0.3,0 -0.42,0.08 -0.08,0 -0.07,0 -0.47,0 -7,0 -1.12,0 -2.19,0 -0.65,0 -2.83,0 -0.41,0 -1.84,0 -0.16,0 -5.39,0 -1.36,0 -5.53,0 -0.34,0 -0.53,0 -0.43,0 -0.25,0 -0.81,-0.05 0.08,0.08 0.11,0.15 0.07,0.07 0.06,0.05 0.08,0 0.11,0 0.47,0 0.08,0 0.07,0 0.06,0 0.06,0 0.07,0 0.17,0.05 0,0 0,0 0.08,0.12 0.06,0.05 0.06,0 0.05,0 0.22,0 0,0 0,0 0.05,0 0.06,0 0.1,0 0.11,0 0.25,0 0,0.09 0,0.07 -0.08,0.11 0,0.11 0,0.06 0,0 0.09,0 0.05,0 0,0 0,0 0,0.11 0,0 0,0 -0.07,0.16 -0.09,0.12 0,0 0,0 -0.06,0 -0.06,0 -0.06,0 -0.06,0 0,0 0,0 0,0.1 0,0 0,0 0,0 -0.08,0 0,0 0,0 0,0.06 0,0 0,0 -0.25,0 0,0 0,0 0,0.13 0,0.05 0,0 0,0 0,0 0,0 -0.16,0 -0.07,0 -0.08,0 -0.15,0 -0.06,0 0,0 0,0 -0.06,0.12 0,0.05 0,0 -0.06,0 -0.05,0 0,0 -0.11,0 -0.06,0 -0.09,0 -0.12,0.05 -0.08,0 0,0 0,-0.06 0,0 0,-0.06 0,-0.07 0,0 -0.07,-0.05 -0.1,0 -0.06,0 -0.15,0 0,0 -0.06,0 -0.07,0 -0.11,0 0,0 -0.1,0 0,0 -0.07,-0.08 -0.12,0 -0.06,0 -0.11,0 0,0 0,0 -0.11,0 -0.16,0.08 -0.11,0.07 -0.06,0 -0.13,0 -0.76,0 0,0 0,0 0,0 0,0 -0.07,0.07 -0.06,0.1 0,0.1 0,0.06 -0.05,0 0,0 0,0 0,0 -0.09,0.11 -0.05,0.06 0,0 -0.17,0 0,0 -0.08,0.07 -0.07,0.07 0,0 0,0 0,0.06 0,0 0,1.76 0,0 0,0 -0.07,0 -0.14,0.08 0,0 -0.08,0.07 0,0 -0.09,0.11 0,0 -0.05,0 -0.05,0 -0.08,0 -0.08,0 -0.07,0 -0.06,0.05 -0.05,0.06 0,0 -0.06,0 -0.16,0.09 0,0 -0.11,0 0,0 -0.07,0 0,3.44 -0.65,0 -0.89,0 -10.25,0 0,0.22 0,2 0,1.88 0,0.5 0,0.15 0,0.15 0,0.47 0,0.45 0,0.28 0,0.38 0,0.16 0,0.74 0,0.66 0,0.69 0,0.52 0,4.88 0,3.79 3,0 2.1,0 0.09,0 0,12.66 0,0.55 0,1.13 0,1.3 0,0.92 13,0 2.33,0 0.35,0 1.48,0 6.27,0.13 6.43,0 2.24,0 2.26,0 0,0 1.57,0.05 0.3,0 7.92,0 2.22,0 0,-0.15 -0.08,-1.62 0,-1.54 0,-2.1 0,-2.76 0,-0.39 0,-1.12 0,-2.16 0,-1.5 0,-3.32 0,-0.68 0,-6.14 0,-1.61 0,-0.76 0,-1.54 0,-2.65 0,-1.1 0,-1.69 0,-0.22 0,-0.23 -0.11,-0.65 0,-0.12 -0.06,-0.41 0,-0.1 0,-0.14 0,-4.57"
       transform="translate(-148.49,-252.36)"
       id="path3618"
       style="fill:#51459c;stroke:#010101;stroke-width:1;stroke-linecap:square;stroke-linejoin:bevel;stroke-miterlimit:4;stroke-dasharray:none"
       name="DeSoto ISD"
       inkscape:connector-curvature="0" />
    <path
       class="cls-1"
       d="m 187.67,487 -2.92,-4.22 -2.55,-3 0,0 -2.16,0.75 -2.94,1.29 -1.51,0.7 -0.92,0.42 -1,0.44 -1.23,0.62 -0.52,0.28 -1.55,0.78 -4,1.93 -0.06,-0.18 -0.16,-0.18 -0.18,-0.1 -0.22,0 -0.25,0 -0.12,0 -0.86,0.51 -0.52,0 -0.08,0.06 -0.06,0.09 0.06,0.09 0.17,0.18 0,0.16 0,0.2 -0.09,0.18 -0.22,0.24 -0.44,0.23 -0.62,0.22 -0.45,0.27 -0.47,0.08 -0.76,0.42 -0.34,0.14 -0.47,0.05 -0.24,0.19 -0.17,0 -0.43,0.42 -0.19,0 -0.7,-0.24 -0.33,-0.21 -0.16,0 -0.15,0 -0.25,-0.1 -0.18,0 -0.17,0.11 -0.13,0 -0.23,0.1 -0.12,0 -0.16,-0.1 -0.81,0.62 -0.11,0.68 -0.05,0.14 -0.15,0.09 -0.16,0 -0.16,-0.07 -0.15,-0.19 -0.46,0 -0.17,0 -0.11,0.12 -0.22,0.41 -0.21,0.22 -0.18,0.13 -0.15,0 -0.18,0 -0.1,-0.08 0,-0.27 0,-0.19 -0.09,-0.09 -0.16,0 -0.32,0 -0.51,-0.11 -0.35,-0.07 -0.4,-0.18 -0.18,0 -0.16,0.06 -0.14,0.08 -0.24,0.06 0,0.74 0,0 -0.06,1.87 0,7.76 -0.08,5.44 0,1.92 0,0.13 0,1.89 0,2.08 0,0.4 0,1.46 0,0.52 0,1.61 0,3.65 0,0.94 -0.1,2.05 0,1.26 0,1.13 0,0.94 0,0.94 0,0.9 -0.11,2.51 0,4.3 4.75,0 6.52,0.17 16.54,0 3.45,0 2.71,0 3.47,0 4.53,-0.05 1.65,0 5.75,0 17.16,0 1.11,0 10.42,0 1.79,0 1.92,0 1.4,0 0,-0.92 0,-1.3 0,-1.13 0,-0.55 0,-12.02 -0.09,0 -2.1,0 -3.33,0 0,-3.82 0,-4.88 0,-0.52 0,-0.69 0,-0.66 0,-0.74 0,-0.16 0,-0.35 0.05,-0.33 0,-0.45 0,-0.47 0,-0.15 0,-0.15 0,-0.5 0,-1.25 0,-2 0,-0.22 -4,0 -1,0 0,-1 0.05,-3.57 -0.14,-2.68 0,-1.49 -1.33,0 -1.63,0 -2.26,0 0,-0.06 0,-3.2 0,-0.22 0,-0.41 0,0 0,-0.46 -1.29,0 -1.61,0 -0.15,0.13 -0.4,0.5 -0.34,0.44 0,0.06 -0.86,1.17 -0.07,0.12 -0.06,0.09 -1.25,-1.12 -0.46,-0.4 -1.13,-1.05 -1.27,-0.14 -0.74,-0.73 -1,-1.17 0,2.27 -0.21,0 -0.59,0 -0.1,0 -0.16,0 -1.47,-0.36 -1.39,-0.32 -0.39,-0.07 -0.18,0 -1.9,0 0,-0.1 -0.47,-0.78 -0.06,-0.09 -0.29,-0.4 -0.32,-0.32 -0.12,-0.21 -0.12,-0.24 -0.26,-0.36 -0.08,0 -0.37,0.18 -0.08,0 -0.84,0.44 -7.44,3.84 -0.13,-0.19 -1.77,-2.58 -0.19,-0.27 -0.5,-0.73"
       transform="translate(-148.49,-252.36)"
       id="path3620"
       style="fill:#51459c;stroke:#010101;stroke-width:1;stroke-linecap:square;stroke-linejoin:bevel;stroke-miterlimit:4;stroke-dasharray:none"
       name="Cedar Hill ISD"
       inkscape:connector-curvature="0" />
    <path
       class="cls-1"
       d="m 258.51,256.09 0,-0.58 0,-0.76 0,-0.64 -0.06,-0.22 -5.05,0 0,1.81 0,0.08 0,0.1 0,0.24 -1,0 -0.36,0 -1.1,0 -0.63,0 -1.54,0 0,0 -0.48,-0.11 0,0.09 0,0.06 0,0 -0.57,0 -1.11,0 -0.38,0 0,0 -0.49,0 0,0.11 -0.4,0 0,0 -0.34,0 -0.17,0 -2.08,0 -1.72,-0.08 -0.13,0 0,-0.61 -0.54,0 -0.15,0.09 -2.2,0 0,0.72 -0.33,0 -0.51,0.16 -0.07,0 -0.11,0 -2.45,-0.15 -0.54,0 0,-1 0,0 0,0 0,0 -0.25,0 -0.29,0 -2,0.15 -0.33,0 -0.08,0 -0.73,0 -0.78,0 -0.42,0 -0.51,0 0,0.92 0.06,0.53 0,0 0,0.05 0,0 -0.08,0.33 -0.06,0.5 -0.46,0 -0.46,0 0,-0.09 -0.37,0 -0.16,0 -0.12,0 -0.23,0 -0.05,0 -0.68,0.21 -0.11,0 0,0 -2,0 0,0.46 0,0.36 0,0.06 0,0.07 0,0 0,0.08 0.06,0.1 0,0.06 0,0 0,0 -0.28,0.11 0,2 0.1,1.09 -7.6,0 0,0.54 0,0 0,0.14 0,0.51 0,0.09 0,0.22 -0.06,0 0,2.67 0,0.1 0,0.07 0,0 0.3,0 0,0 0,5.11 -0.07,0.05 0,0 -0.06,0 -2.53,0 -0.68,0 -0.55,0 -1.4,0 -0.93,0 -1.51,0 -0.62,0 -0.45,0 0.17,0.12 0.21,0.14 0.11,0.2 0,0.09 0,0.16 0,0.13 0,0.08 0,0.11 0.07,0.18 0,0.64 0,0.18 0,0.25 0,0.21 0,0.2 -0.07,0.13 -0.07,0.18 0,0.21 0.06,0.2 0.11,0.14 0.21,0.18 0.23,0.11 0.33,0.1 0.34,0.07 0.41,0 0.35,0 0.34,-0.07 0.24,-0.06 0.28,0 0.24,0.07 0.16,0.13 0.06,0.13 0.06,0.23 0,0.16 0,0.17 0,0.14 -0.08,0.13 -0.09,0.11 -0.18,0.07 -0.46,0 -0.15,0 -0.13,0 -0.93,0.5 -0.14,0.11 -0.06,0.17 0,0.15 0.07,0.12 0.12,0.1 0.15,0.07 0.92,0.13 0.18,0 0.2,0.11 0.12,0.13 0.09,0.17 0.06,0.17 0,0.21 -0.17,0.94 0,0.16 -0.11,0.24 -0.2,0.44 0,0.06 -5.18,0 -2.25,0 -0.79,0 0,1.22 0,1.11 0,0.1 0,0.08 0,0.4 -0.33,0 -1.1,0 0,-0.08 0,-0.06 0,-0.07 0,-0.05 0.08,-0.09 0,0 -0.43,0 -1.57,0.07 -0.14,0 -1.75,0 0,2.77 0,0.67 0,0.21 0,0.88 0,1.4 0,8.65 1.11,0 1.26,0 0,0.14 0,1.05 0,0.25 0,0.11 0,0.12 0,0.07 0,0.96 2.16,0 0,7.93 -0.11,0.1 -4.62,0 -0.27,0 -0.32,0 -0.71,0 -0.88,0.07 -1.56,-0.08 -0.77,0 -2.76,0 -0.6,0 0,3.76 0,0.93 0,0.23 0,0.06 -1.24,0 -0.07,0 -0.63,0 -2,0.07 0,-0.07 -0.09,-0.07 -1,0.13 0,0.19 -0.06,0.27 -0.72,0 -0.32,0 0,0.24 0,0.23 0,0.05 -0.08,1.48 0,0 0,0 0,2.54 -0.06,0.43 0,0 0,0.07 0,2.12 0,0 0,4.41 -0.93,0 0,0.91 0.07,2.06 0,0 0,0 -0.12,1.63 0,1.62 0,1.18 0,0.6 -1.51,0 0,10 1.63,0 1.47,0.09 0.09,0 0,0 0.05,0 0.76,0 0.28,0 0.05,0 3.84,0 1.06,0 0.24,0 3.1,0 3.75,0 0.08,0 0.35,0 0.81,0 0.92,0 0,-0.15 0,-0.07 0,-0.07 0,-0.14 0,-0.34 0,-0.2 -0.13,-0.9 0,-0.7 0.06,-2.63 0,-0.57 0,-0.9 0,-0.77 0,-0.11 0,0 0,-0.13 1.89,0 1.38,0 1.2,0 0.6,0 0.12,0 2.69,0 1.81,0 2.53,0 1.83,0 0,-0.4 0,-1.31 0,-3.39 0,-1.1 0,-0.46 0,-2 0,-0.1 2.24,0 0.67,0 0.26,0 0,0.3 0,0.06 0,0.09 0,0.07 0,0.07 0,0 0.3,0.37 0.2,0.26 0.06,0.1 0,0.08 0,0.11 0,0.12 0,0.15 0,0.18 -0.06,0.2 0,0.11 0,0.06 -0.14,0.19 -0.07,0.06 -0.08,0.06 -0.1,0 0,0 -0.07,0 -0.06,0 -0.08,0 -0.86,0 -0.27,0 -0.11,0 -0.08,0 -0.08,0 -0.11,0.07 0,0 -0.06,0.09 0,0.06 0,0.11 0,0.09 0,0.1 0.06,0.14 0.13,0.3 0.35,0.65 0,0 0,0.07 0,0.06 0,0.88 0,0 0,0 -0.08,0.11 -0.07,0.07 -0.21,0.16 0,0 -0.14,0.11 -0.1,0.07 2.92,0 4.46,0 0.71,-0.16 2.52,0.11 0.23,-1.13 0.91,-4.49 0,-0.12 0.22,-1.15 0.23,-1.09 0,-0.19 0.49,-2.53 0.24,-1 0.12,-0.56 0.1,-0.5 0,-0.29 0.08,-0.38 0.2,-1 0.19,-1 0,-0.2 0,-0.21 0.18,-0.83 0,-0.13 0.42,-2.25 0,-0.08 1,0 4.52,0 0.13,0 0.36,0.06 0.11,0 0.83,0 0.08,0 0.13,0.42 0.06,0.17 0.3,0.89 0,0.06 0.08,0.27 0.14,0 1.15,-0.33 0.38,-0.11 0.08,0 0,1.23 2.39,0 1.48,0 0.09,-0.12 0.24,0.06 0.11,0 0,-0.12 0.89,0.16 0.06,0.07 0.14,0 0.25,0 0.51,0 0,-1 0.72,0 0.14,0 0.24,0 0.24,0 0.05,-0.1 0,0 0.33,-0.1 0,-0.07 0.12,-0.22 0.36,0 0,1.44 2.84,0 0,-3.16 0,-0.47 0,-2.23 0.83,0 0,-0.5 -0.83,0 0,-2.54 0,-0.43 0,-1.38 0.61,0.08 2.18,0 0.76,0 1.05,0 0.55,0 0,4.28 0.37,0 1.21,0 3.52,0 0,-0.58 0,-0.07 4.8,0 0.37,0 0.54,0 0.11,0 4.6,0 -0.12,-0.25 0,-0.09 0,-0.11 0,-0.08 0,-0.22 0,-0.13 0,-0.74 0,-0.53 0,-5.11 0,-0.51 0,-1 -4.74,0 -0.18,0 -3,0 -1.55,0 -0.68,0 0,-1.44 0,-0.9 0,-1.09 0,-4.6 -0.06,-0.14 0,-0.77 0,-0.56 0,-0.47 0,-0.73 0,-1 0,-1.25 0,-0.07 0,-3.72 0,-0.09 -2.49,0.05 0,0 -2.51,0 0,-0.06 0,-5.39 0,-0.46 0,-3.48 -0.07,-0.19 -0.07,-0.13 0,-0.13 0,-0.23 0,-0.24 0,-1.14 5.15,0 0,-0.28 0.76,0 2,0 0.41,0 1.54,0 0.56,0 1.92,0 0,-1.85 0,0 0,-2.66 0,0 0,-0.82 0,0 0,-0.3 0,-0.09 0,0 0,-0.4 0,-0.48 0,0 0,-0.48 0,0 0,-0.64 0,-0.66 0,0 0,-0.1 0,-0.9 0,-0.46 0,0 0,-1.09 0,-0.36 0,0 0,-0.91 0,0 0,-0.29 0,0 0,-0.49 0,-0.69 0,0 0,-0.51 0,0 0,-0.22 0,-0.22 -0.51,0 -0.22,0 -0.23,0 -0.2,0 -0.15,0 -0.91,0 -0.43,0 -0.79,0 -0.58,0 -0.84,0 -2.47,0 -0.75,0 -0.1,0 0,-0.14 0,0 0,-0.31 0,-0.16 0,-1.19 0,-0.39"
       transform="translate(-148.49,-252.36)"
       id="path3622"
       style="fill:#51459c;stroke:#010101;stroke-width:1;stroke-linecap:square;stroke-linejoin:bevel;stroke-miterlimit:4;stroke-dasharray:none"
       name="Carrollton-Farmers Branch ISD"
       inkscape:connector-curvature="0" />
    <path
       class="cls-1"
       d="m 373.69,274.19 -12.31,0 -1.31,0 -5.65,0 -0.9,0 -1.84,0 -1.18,0 -0.6,0 -0.33,0 -1.74,-0.07 -0.1,0 -0.45,0 -0.67,0 -0.84,0 -3,-0.05 -2.28,0 -1,0 -0.48,0 -0.94,0 -5.23,0 -1,0 -0.55,0 -1.2,0 -0.57,0 -1.37,0 -9.15,0 -1,0 -2.22,0 -3.66,0 -0.16,0 -1.86,0 -1.26,0 -0.84,0 -2.35,0 -1.9,0 -3.93,0 -1.84,0 -5.09,0 -1.95,0 -0.1,0 0,0.08 -0.44,0 -0.52,0 -0.09,0 0,2.25 -0.08,0.06 0,4.54 0,0.84 0.44,0 0,2.59 0,0 0,0.68 0,0.69 0,3.13 0,1.53 0,1.89 0.08,0 0.39,0.06 0,0 0.85,-0.13 2.26,0 0.57,0 0.45,0 3,0.05 1.08,0 0.85,-0.06 0,4 -1.48,0 0,0.43 0,0.42 0,0.15 0,0.47 0,0.4 -1.59,0 -0.24,0 -0.62,0 0,4.21 -0.25,0.06 0,0.17 0,0.06 0,0 -0.08,0.15 0,0 0,0.05 0,0.27 0.07,0.12 0.07,0.08 0.06,0.06 0.14,0.11 0,0 0.13,0.09 0.1,0 0.09,0 0.11,0 0.13,0 0.18,0 0.26,0 0.15,0 0.16,0 0.1,0 0,0 0.16,0 0.15,0 0.13,0 0.09,0 0.21,0 0.36,0 0.15,0 0.16,0 0.07,0 0.12,0 0.06,0 0.06,0.06 0,0 0,0 0,0 0.08,0 0.2,0 0.2,0 0.13,0 0.09,0 0.08,0.05 0.06,0.06 0.07,0.05 0.07,0 0.19,0 0.16,0 0.16,0 0.06,0 0,0 0,0 0,0.05 0.07,0.18 0,0.11 0,0.17 0.05,0.13 0,0.08 0,0 0,0.05 -0.05,0 -0.2,0.17 -0.05,0.05 0,0.07 0,0.09 0,0.12 0,0.1 0,0.28 0,0.1 0,0.11 -8.82,0 -0.15,0 -0.07,0 -0.12,0 0,0 -0.09,0 -0.32,0.12 -0.63,0 0,0.07 0.06,1.65 0,1.12 0,0.45 0,0.74 0,0 0.05,0.18 0,0 0.17,0 0.27,0 0,0.85 0.16,0 2.47,0 1.17,0 1.93,0 2,0 1.46,0 1.2,0 0,-0.9 0.16,0 2.35,0.05 0,0 0,0 0,0 0,0.07 0,0.11 0,0.15 0,0 0,0 0,0 0.12,0.17 0.08,0.07 0,0.05 0,0.08 0,0 0,0 -0.07,0.05 0,0.13 -0.13,0.2 0,0.11 0,0.11 0,0.06 0,0 0,0 0,0.05 0.07,0.05 0,0 0,0 0.11,0.16 0,0 0,0 0,0 0.08,0 0.09,0 0.11,0.07 0.12,0.09 0.07,0 0,0 0,0.27 0.06,0.09 0.07,0 0.19,0 0.39,-0.06 0.25,0 0.13,0 0.75,0 0.06,0 0,0.05 0,0.09 0,0.13 0,0.16 -0.09,0.21 -0.16,0.42 0,0 -0.07,0.07 -0.14,0.12 0,0 0,0 0,0.06 0,0.13 0,0.16 0,0.12 -0.07,0.13 0,0.11 0,0 0.09,0 0.17,0 0.08,0 0.16,-0.07 0.16,0 0.27,0 0.09,0 0.06,0.08 0,0.08 0,0.89 -0.08,0.07 0,0.07 0,0.09 0.38,0 0.06,0 0.09,0.06 -1.48,1.24 -0.66,0.55 -1.38,1.15 -0.5,0.42 -0.05,0 -0.76,0.56 2.33,0 0.38,0 3,0 0.07,0.09 0,0.06 0.1,0.07 0.34,0.17 0.87,0.42 0.16,0.05 0.14,0.07 0.17,0.1 0.09,0.07 0.18,0.18 0.35,0.48 0.25,0.4 0.14,0.18 0.16,0.09 0.19,0.07 0.17,0 0.17,0 0.08,0 0.08,0 0.13,0 0.05,0 0.16,0 0.06,0 0.07,0 0.15,0.08 0,0 0,0 0,0 0.16,0.21 0.37,0.57 0.06,0.08 0,0 0,0.06 0,0.08 0,0.42 0.06,0.12 0.12,0.19 0.14,0.24 0.06,0.07 0,0 0,0 0.1,0.06 0.13,0 0,0 0.15,0 0.19,0 0,0 0,0 0,0 0,0 0,0.05 0.14,0.24 0.08,0.14 0.12,0.23 0.09,0.19 0.11,0.22 0,0.08 0,0.07 0,0.11 0,0.07 0.06,0.11 0,0.07 0.07,0.16 0,0.06 0.1,0.15 0,0 0,0 0.33,0 0,0 0,0 0.05,0.06 0.06,0.06 0.06,0.07 0.07,0.09 0.07,0.08 0.06,0.1 0,0 0,0.06 0,0 0,0 -0.06,0.06 -0.05,0.06 -0.05,0.07 0,0 0,0 0,0.2 0,0.08 0,0 0,0.06 0,0 0,0 0.13,0.09 0.14,0.08 0.12,0.05 0.09,0 0.24,0.08 0,0 0,0 0,0.13 0,0 0,0.05 0,0.06 0,0.09 0,1.48 0,0.18 0,0.06 0,0.08 0,0 0.12,0.1 0,0 0,0 0,0.05 0,0 0,0.09 0,0.06 0,0.11 0,0.05 0,0.05 0,0 0.1,0.06 0.07,0.05 0.05,0 0.05,0.05 0,0.06 0,0.05 0,0.13 0,0.11 0,0.19 0,0 0,0 0,0 0.1,0.07 0.22,0.14 0.25,0.14 0.12,0 0.14,0 0.13,0 0,0 0,0 0,0 0,0 0.08,0.1 0.12,0.12 0,0 0.05,0 0.07,0 0.08,0 -0.09,0.11 -0.07,0.09 -0.09,0.12 -0.07,0.11 -0.07,0.12 -0.06,0.12 -0.06,0.14 -0.06,0.15 3.16,1.13 0,0.16 -0.05,0.24 0,0.06 0,0.06 0,0.06 0,0.06 -0.07,0.07 0,0 0,0 0.94,0 0,0 0,0 -0.05,0 -0.1,0 -0.19,0 -0.05,0 0,0 0,0 0,0 0,0 0,0.05 0,0.06 0,0.26 0,0.06 0,0 0,0 0,0 0,0 0.06,0 0.11,0 0.13,0 0.31,0 0.06,0 0,0 0,0 0,0.07 0,0.21 0,0.08 0,0 0,0 0.11,0.08 0.1,0.07 0.13,0.07 0.12,0 0,0 0,0 0,0.09 0,0 0,0 0,0 0.06,0 0.22,0 0.06,0 0,0 0,0.05 0,0 0,0.09 0,0.13 0,0 0,0 0,0 0.06,0 0.13,0 0.15,0 0.24,0 0.13,0 0.07,0 0.08,0 0.06,0 0,0 0.07,0.05 0.09,0.07 0.08,0.07 0,0 0.05,0 0,0 0,0 0,0.07 0.05,0.09 0,0.05 0.13,0.15 0,0.06 0,0 0,0.1 0,0 0,0.05 0,0 0.21,0.17 0,0.05 0,0.08 0,0.06 0,0.11 0,0.07 0,0 0,0 0.05,0 0,0 0.05,0 0.12,0 0.06,0 0.05,0 0.28,0.27 0.06,0.06 0,0 0,0.1 0,0 0,0 -0.05,0 0,0 0,0.1 0,0 0,0 0.15,0.07 0.09,0 0.05,0 0,0 0,0.09 0,0.11 0,0.06 0,0.05 0,0 0.19,0.12 0.28,0.16 0.18,0 0.19,-0.05 0.08,0 0.17,0 0.13,0 0.19,0.09 0.08,0 0.07,0 0,0 0,0.08 0,0 0,0.11 0.09,0.18 0,0 0,0 0.32,0 0,0 0,0 0,0 0,2.83 0,0 -0.05,0 -0.12,0 -0.11,0 -0.07,0 0,0 0,0 0,0.07 0,0 0,0 0,0 0.11,0 0,0 0,0 0,0 0,0.13 0.05,0.23 0,0.07 0,0 0,0 0.06,0 0.12,0 0,0 0,0 0.05,0 0,-0.06 0.08,-0.06 0,0 0.12,0 0.05,0 0,0 0,0 0,0.05 0,0.57 -0.11,0.29 0,0.07 0,0.08 0,0 0,0 0,0 0.13,0 0.08,0 0.11,0 0.06,0 0,0 0.1,0.08 0.09,0.11 0,0.1 -0.1,0.08 0,0 0,0 0,0.19 0,0.08 0,0.06 -0.05,0.07 0,0 0,0.12 0,0 0,0 0,0 0,0 0,0.05 0,0 0,0 -0.08,0.1 0,0 0,0 0,0.07 0,0.45 0,0.18 0,0.11 0,0.07 0,0.07 0,0 0,0 0,0 0,0 0,0 0.11,0.09 0.08,0 0,0 0,0 0.13,0 0,0 0.06,0 0,0 0.15,0 0.06,0 0,0 0,0.29 0.17,0.21 2.74,-2.1 0.09,0.22 0.35,-0.31 -0.37,0.71 0.1,0.16 1,1.6 0,0.08 0,0.05 0.12,0.22 0.48,0.92 0.17,0.31 0.48,1 0.14,0.26 0.18,0.3 0.08,-0.06 0.32,-0.27 0.09,-0.09 0.08,-0.08 0.17,-0.19 0.22,-0.26 0.07,-0.08 0.1,-0.11 0.09,-0.09 0.46,-0.4 0.35,-0.28 0.26,-0.21 0.3,-0.24 0.16,-0.13 0.06,-0.05 0,0 0.06,-0.06 0.07,-0.06 0.21,-0.17 0.59,-0.53 0.15,-0.14 2.15,1.85 0,0 0.42,-0.3 0.08,0.07 0.08,0.07 0.4,0.35 0.4,-0.35 0.1,-0.09 -0.48,-0.66 0.09,-0.09 1,-0.85 0.16,0.14 0.49,0.45 0.95,0.82 0.09,0 0.17,0 13.69,0 0.08,0 0.76,0 0,-0.85 0,-1.77 0,-0.61 0,-0.1 0,-0.69 0,-11.08 0,-1 0,-1.75 0,-1.5 0,-2 0,-1.06 0,-0.44 0,-0.33 0,-0.23 0,-0.08 0,-0.07 0,-0.06 0.09,-0.07 0.08,0 0.22,-0.1 -0.5,0.17 -0.15,0.05 -0.07,0 -0.18,0.06 -3.42,1 -1.48,0.47 -0.1,0 0,-4.63 0,-1.18 0,-0.48 0,-0.53 0,-1 0,-1.23 0,0 0,-1 0,-0.65 0,-0.48 0,-2.26 0.67,0 2.62,0 7.31,0 0,-4 0,-0.19 0.05,-0.16 0,-0.06 0,-0.06 0.15,0 0,-0.15 0,-0.09 0,-0.43 0,-3.39 0,-0.22 0,-1.76 0,0 0,-1.66 0,-0.61 0,-0.37 0,-0.3 0,-0.14 0,-0.5 0,-7.78 0,0 0.53,0 2,0 1.67,0 0,-0.4 1.25,-0.09 0,0 0,0 2.13,0 0,-1.71 0,-0.87 0,-0.68 0,-0.3 0,-0.28 0,-0.23 0,-0.47 0,-0.5 0,-0.48 0,-0.5 0,-1.49 0,-0.07 0,-0.07 0.15,-0.08 0.13,-0.1 0.3,-0.14 0.56,-0.27 0.15,-0.08 0.05,0 0.06,0 0.24,-0.08 0.15,0 0.11,0 0.12,0 0.31,0 0.33,0 0.29,0 0.13,0 0,-2 0,-0.41 0,-1.23 0,-0.59 0,-0.07 0,-0.08 0,-1 0,0 0,-0.33 0,-0.15"
       transform="translate(-148.49,-252.36)"
       id="path3624"
       style="fill:#51459c;stroke:#010101;stroke-width:1;stroke-linecap:square;stroke-linejoin:bevel;stroke-miterlimit:4;stroke-dasharray:none"
       name="Richardson ISD"
       inkscape:connector-curvature="0" />
    <path
       class="cls-1"
       d="m 460.55,427.53 0,-1.22 0.11,-8.29 0,0 0,-1.8 0,-0.88 0,-0.55 0,-0.86 0.11,-1.33 0,-0.12 -0.71,-0.2 -9.12,-2.7 -5.87,-1.78 -0.29,0 -0.21,0 -4.58,-0.45 -4.24,-0.41 -5.28,-0.5 0,-9 -1.1,0 -0.66,0 -0.58,0 -0.65,0 -1.82,0.08 -0.93,0 0.06,-4.82 0,-3 0,-0.34 0.05,-1.78 -3.72,0 -0.93,0 -0.3,0 -0.78,0 -2,0 -0.12,0 -0.09,0 -0.09,-0.07 -0.08,-0.07 -0.08,-0.1 -0.13,-0.15 -0.25,-0.3 -0.11,-0.06 -0.07,0 -0.14,0 -2.42,0 0,-0.09 0,-0.9 0,-0.36 0,-2.77 -0.35,0 0,0 -0.06,-0.8 -2.06,0 -1.34,0 -0.08,0 0,-0.35 0,-0.56 0.19,-3.48 0,-0.74 4.23,0 0.12,0 0,0 0.18,0 0,-0.78 -0.06,-0.56 0,-0.16 -0.06,-0.42 0,-0.24 0.15,0 0,0 0.52,0 0.14,0 0,-0.62 0.09,0 0,-3.4 0,-0.64 0,-0.55 0,-0.17 0,0 0,-0.19 0,-0.18 0,-0.93 0,-0.68 0,-1.08 0,-0.84 -0.08,0 -0.48,-0.22 -0.12,0 -0.1,0 0,0 0,0 0,-0.1 0,0 0.06,-0.06 0.05,-0.06 0,0 0,-0.07 0,0 0,0 0,0 -0.32,0 -0.1,0 -0.06,0 -0.1,0 0,0 0,0 0,0 0,0 -0.15,0 -0.12,0 -0.09,0 0,0 0,0 0,-0.14 0,-0.05 0,0 0,0 -0.27,-0.08 -0.26,0 0,0 0,0 0,-0.24 0,0 0,0 -0.06,-0.09 0,0 0,0 -0.14,0 -0.07,0 0,0 -0.05,0.06 0,0.07 0,0 0,0 0,0 -0.12,0 -0.06,0 0,0 -0.07,0 -0.43,0 -0.06,0 -0.05,0 0,0 0,0 0,-0.06 0.05,-0.12 0,-0.08 0,0 0,0 -0.13,0 -0.05,0 0,0 0,0 -0.09,-0.14 -0.07,-0.07 -0.05,0 0,0 0,0 0,0 0,0 -0.05,-0.12 0,-0.08 -0.08,-0.17 0.13,-0.08 -0.15,-0.28 -0.46,0 0,-0.07 0,0 0,0 0,0 0.07,-0.06 0,0 0,-0.33 0.1,0 0.12,0.29 0,0 0.14,0 0.06,0 0.1,0 0.1,-0.06 0,0 0,0 0,-0.05 0,0 0,-0.1 0,-0.11 0,0 -0.05,-0.07 0,0 0,0 -0.12,-0.09 0,0 0,0 0,0 0,0 0.15,-0.15 0,-0.05 -0.12,-0.07 0,0 -1.1,-1.16 -0.48,-0.22 -0.46,-0.37 -1.29,-1.12 -0.71,-0.63 -2,-1.64 -0.57,-0.47 -0.06,0 -2,-1.74 -0.07,-0.06 0,0 -0.09,-0.07 -0.21,-0.25 -0.62,0.5 -0.38,0.3 -0.73,0.59 -0.22,0.18 -0.53,0.31 -0.14,0.34 -0.21,-0.18 -0.57,-0.47 -0.13,-0.12 -0.42,-0.37 -0.5,-1.59 -1.1,0.94 -0.61,0.5 -0.06,0.06 -0.12,0.08 -0.11,0.08 -0.05,0 -0.06,0.05 0,0 -0.06,0 -0.11,0.1 -1,0.84 -0.08,0.07 -0.6,0.52 -0.33,0.26 -0.31,0.26 -0.27,0.23 -0.42,0.36 0,0 0,0 -0.06,0.06 -0.27,0.23 -0.23,0.19 -0.11,0.09 -0.21,0.17 -0.09,0.08 -0.07,0.06 -0.17,0.12 -0.07,0.05 -0.63,0.53 -0.24,0.2 -0.07,0.06 -0.23,0.19 -0.34,0.3 -0.34,0.3 -0.52,0.42 -0.13,0.09 -0.14,0.07 -0.09,0 -0.14,0 -0.11,0 -0.07,0 -0.36,0 -0.1,0 -0.19,0 -0.15,0 -0.3,0.12 -0.38,0.17 -0.91,0.37 -0.26,0.11 -0.19,0.06 -0.14,0 -0.23,0 -0.1,0 -0.12,0 -0.2,0.06 -0.07,0 -0.19,0.08 -0.06,0 -0.24,-0.19 -0.4,-0.34 -0.17,-0.14 -0.13,-0.12 -1.9,1.62 -0.36,-0.22 -1.25,-1.2 -0.44,0.4 -2,1.69 0.06,0.08 0,0 0.54,0.46 -0.09,0.08 0,0 0.05,0.58 0,1.29 0,5.39 -0.44,0 -0.42,0 -1.82,0 0,1.46 0,0.14 0,1.91 0,0.24 0,0.57 -1.75,0.05 0,0.52 0,1.47 -0.08,0.22 -0.17,0.25 0.09,0.06 0.06,0 0,0 0,0 0,1.31 0,0.18 0,0 -0.05,0 0,0 -0.06,0 -1.46,0 0,0.66 -0.06,0.16 0,0.09 -0.05,0.19 0,0.17 0,0.12 0,0.12 0.08,0.26 0,0 0,0.08 0,0.09 0,0.1 0,0.08 0,0.11 0,0.09 0,0.29 0,0.11 0.03,0.99 0,0.08 0,3.92 -0.05,1.77 0,0.07 -6.45,0 0.49,0.41 0.56,0.46 0.71,0.59 0.74,0.61 0.75,0.62 0,0 0.22,0.18 1,0.55 1.47,1.51 0.63,0.59 0.45,0.39 0.13,0.09 0.07,0.06 0.28,0.26 0.11,0.12 0.12,0.16 0.08,0.12 0.07,0.13 0,0.06 0,0.07 0,0 0,0.05 0,0.06 0.05,0.15 0,0.12 0,0.18 0,0.57 0,0.45 1.29,0 0.07,0 0.08,0 0.9,0 0.05,0 0.37,0.32 0.47,0.39 0.19,0.15 1.33,1.12 0.13,0.11 0.29,0.26 0.13,0.11 0.08,0.06 0.26,0.23 0.88,0.76 0,0 0.81,0.69 1.15,1 0.47,0.39 0.07,0.07 0,0 0.05,0 0.06,0 0.65,0.55 0.11,0.1 0.07,0.06 0.58,0.47 0.06,0.06 -0.08,0.09 -0.06,0.08 -0.07,0.11 0,0.11 -0.1,0.06 0.38,0 0,0.25 0,1.13 -0.12,0.39 0.2,0 0.47,0.08 2,1.88 0,0.06 0,0 0.14,0.13 0.23,0.19 0.2,0.18 1.16,1 0.24,0.21 0.26,0.22 0.16,0.13 0.11,0.1 0.53,0.45 0.77,0.67 0.25,0.22 0.8,0.7 2.5,2.06 0.13,0.15 0,1 0,1.35 0,14.12 0,0.52 0,0.49 0.36,-0.05 2.27,0 0.23,0 0.28,0 0.5,0.09 0.18,0 1.31,0 0.62,0 0.57,0 0.3,0 0.66,0 1,0 0.06,0 0.89,0 0.32,0 0.19,0 0.51,0 0,0.51 0,0.44 0,4.58 0,1.16 3.44,0 1.78,0 0.07,0 0,2.09 0,0.23 0,0.73 0,0.07 0.09,0.23 0.07,0.14 0.06,0.12 0.05,0.09 0,0 0,0 0,0 1.22,0 2.71,0 4.48,0.09 -0.05,0 0,0 1.13,1 1.54,1.21 0,0 0.1,0 0.06,0 0.05,0 0.2,-0.16 0.22,-0.2 0.28,-0.23 0.07,-0.06 0.26,-0.2 0.66,0.56 0.49,0.43 0.27,0.22 0.77,0.65 0.23,0.2 0.52,0.45 -0.37,0.32 -1,0.81 1.58,1.35 0.44,0.38 0.48,0.42 0.21,0.18 0.11,0.1 0.08,0.12 0.06,0.13 0,0.06 0,0.31 0.05,0.12 0.06,0.1 0,0 0.19,0.19 0.11,0.1 0.34,0.29 0.32,0.3 0.2,0.2 0.08,0.1 0,0.13 -0.07,0.09 -0.18,0.19 0,0 -0.24,0.26 0,0 0,0 0,0.05 0.06,0.07 0.08,0.09 0.26,0.23 1,0.81 0.17,0.16 -0.84,0.73 0,0 -0.23,0.19 0,0 0.21,0.15 0.28,0.24 0.13,0.07 0.11,0 1.08,-0.09 0.08,0 1,-0.09 0.26,0 0.43,0 0.19,0 0.25,0 0.24,0 0.32,0 0.21,0 0.16,0 1.25,-0.1 0.77,-0.06 0.12,0 0.1,-0.05 0.07,-0.06 0.06,-0.06 0.18,-0.19 0.19,-0.21 0.38,-0.37 0.37,-0.3 0.86,-0.72 1,-0.85 0.84,-0.72 1.13,1 2.09,1.79 1.85,1.57 1.49,1.32 0.45,0.35 0.24,0 0.1,0 0.09,0 0.06,0 0.1,0.08 0,0 0,0 0,0 0,0 0.16,0 0.19,0 0.12,0 0.18,0 0.17,0 0.1,0.07 0.07,0 0.07,0 0.43,0 0.09,0 0.07,0 0,0 0,0 0,0.19 0,0.1 0,0.09 0,0.06 0,0 0.13,0 0.08,0 0.1,0 0.09,0 0.12,0 0.09,0 0,0 0.09,-0.12 0.06,-0.06 0.08,-0.08 0.09,-0.05 0.05,0 0.07,0 0.07,0 0,0 4.27,-3.66 0,0 -0.07,0.09 0,0 0,0.06 0,0.21 -0.09,0.1 0,0.06 0,0.09 0.28,0 0.13,0 0.15,0 0.05,0 0,0 0,0 0,0.06 0,0.11 0,0.3 0,0.08 0,0.07 0,0.06 0,0 0.05,0.05 0.06,0 0.07,0.06 0.09,0.08 0,0 0,0.06 0,0.12 0,0.05 0,0.07 0,0.12 0,0.08 0,0.07 0,0.06 0.06,0.1 0,0.06 0,0.06 0,0.14 0,0.05 0,0.06 0,0.06 0,0.05 0,0 0,0 0.07,0 0.21,0 0.07,0 0,0 0,0 0.06,0.12 0,0.08 0,0.08 0,0.07 0,0.09 0,0.11 0,0.09 0,0.1 0,0.07 0,0.08 0.06,0.07 0.08,0.06 0.18,0.12 0.07,0.06 0,0 0,0.06 0.12,0.16 0.06,0.06 0.09,0.06 0.12,0.09 0.11,0.08 0.08,0.1 0.11,0.14 0.05,0.09 0,0.06 0,0.07 0,0.25 0,0.09 0,0.08 0,0.06 0,0 -0.05,0 -0.06,0 -0.18,0 -0.09,0 -0.09,0 -0.1,0 -0.13,-0.08 -0.06,0 0.56,0 0,0 0,0 0,0.12 0,0.08 0.05,0.09 0.07,0.08 0.07,0.08 0,0.06 0,0.06 0,0.05 0,0 0,0 -0.14,0.13 -0.09,0.07 0,0 0,0 0,0.11 0,0.13 0,0 0,0 0,0 0.08,0 0.07,0 0.06,0 0.06,0 0,0 0,0.07 0.07,0.15 0.05,0.09 0.06,0.08 0.06,0.09 0.09,0.14 0,0.07 0.09,0.15 0,0.06 0,0.06 0.05,0.08 0,0.07 0.07,0.15 0.05,0.12 0.06,0.12 0.11,0.2 0.08,0.1 0.12,0.14 0.07,0.08 0.09,0.09 0.14,0.14 0.08,0.13 0.08,0.13 0.06,0.12 0.06,0.1 0.06,0.12 0.05,0.11 0.1,0.16 0,0.09 0,0.1 0.08,0.18 0.07,0.14 0.07,0.13 0.11,0.15 0.07,0.06 0.22,0.14 0.11,0.06 0.11,0.05 0.09,0 0.12,0 0.11,0 0.09,0.05 0.05,0.06 0.06,0.08 0,0.08 0.1,0.24 0,-0.51 0,-2.56 0.12,0 0,-0.36 0,-0.6 0.06,-5.45 0,-0.67 0,-3.07 0,-2.64 0.06,-3.18 0.07,-3.72 0,0 0,0.07 0.09,-4.59 0,-1 0.21,-10.89"
       transform="translate(-148.49,-252.36)"
       id="path3626"
       style="fill:#51459c;stroke:#010101;stroke-width:1;stroke-linecap:square;stroke-linejoin:bevel;stroke-miterlimit:4;stroke-dasharray:none"
       name="Mesquite ISD"
       inkscape:connector-curvature="0" />
    <path
       class="cls-1"
       d="m 461.41,365.56 0,-0.48 -4,0 -10.68,0 -0.17,0 -4.24,0 -2.56,0 -3,0 -0.42,0 0,0 -0.18,0.17 0,0 -0.29,0.3 -0.48,0.48 -0.39,0.34 -0.15,0.16 -0.35,0.33 -0.17,0.15 -0.1,0.08 -0.15,0.16 -0.33,0.06 -0.09,0.06 -0.08,0 -0.3,0.08 -0.26,0.08 -0.16,0 -0.13,0.08 -0.07,-0.07 0,0 0,0 -0.07,0 -0.07,0 0,0 -0.1,-0.16 -0.34,-0.44 -0.12,-0.12 -0.06,0 -0.06,0 -0.32,0 -0.05,0 -0.11,-0.06 -0.08,-0.06 0,0 0,-0.05 0,-0.13 0,-0.21 0,-0.05 0,-0.1 0,-0.09 0,-0.06 0,0 0,0 -0.12,0 -0.24,0 -0.38,0 -0.12,0 -0.21,0 -0.06,0 -0.06,0 0,0 0,-0.05 0,0 0,-0.07 0,-0.06 0,-0.06 -0.06,0 -0.07,0 -0.12,0 -0.07,0 -0.06,0.06 -0.12,0.16 0,0 -0.08,0 -0.06,-0.08 0,0 -0.12,0 -0.13,0 -0.14,0 -0.12,0 -0.14,0 -0.19,0 -0.06,0 0,0 -0.06,0.08 0,0.06 -0.08,0 -0.1,0 -0.08,0 -0.25,0 0,0 0,0 0,0 -0.09,-0.22 0,0 0,0 0,0 0,0 -0.1,0 0,0 0,0 -0.08,0.16 0,0 0,0 -0.21,0 -0.06,0 -0.07,-0.05 -0.06,-0.07 -0.31,-0.32 0,0 -0.06,0 -0.35,0 -0.07,0 -0.08,0 -0.16,0 0,0.23 0,0.07 0,0 -0.05,0 -0.1,0 -0.08,0 0,0 0,0 0,0 0,0 -0.08,0 -0.05,0 -0.14,0.11 -0.06,0 -0.08,0 -0.11,0 0,0 0,-0.23 0,0 -0.06,0 -0.16,0 -0.13,0 -0.06,0 -0.06,0 -0.08,0.07 0,0.06 0,0.05 0,0.31 0,-0.22 0,0 -0.06,0 -0.12,0.05 -0.07,0 -0.37,0 -0.08,0 -0.05,0 -1.23,0 0,0 -0.1,0.06 -0.07,0 0,-0.06 -0.08,-0.08 0,0 -0.08,0 -0.11,0.13 -0.11,0 -0.06,-0.06 0,-0.06 -0.1,-0.2 0,0 0,0 -0.27,-0.08 -0.16,-0.1 -0.09,0 0,0 0,0 0,0.08 0,0.07 0,0.08 0,0 -0.06,0 -0.1,0 -0.14,0 -0.47,0 -0.06,0 -0.07,0 0,0 0,0 0,0.16 0,0 0,0 0,0 0,0 -0.2,0 0,0 0,0 0,0.01 0,0 -0.06,0 -0.09,0 0,0 -0.11,0 0,0 -0.06,-0.24 0,0 0,0 -0.08,0.06 -0.12,0 -0.07,0 -0.07,0 -0.11,0 -0.06,0 -0.15,0 -0.06,0 0,0 0,0 0,-0.06 -0.08,-0.17 0,0 -0.12,0 0,0 0,0 -0.12,0 0,0 0,0 -0.17,0 -0.16,0 -0.07,0 -0.91,0 0,0 0,0 0,-0.2 0,0 -0.07,0 -0.14,0 -0.13,0 -0.06,0 -0.17,0 -0.26,0 -0.3,0 -0.54,0.06 -0.25,0 -0.16,0 -0.19,0 -0.25,0 0,0.84 0,1.08 0,0.68 0,0.93 0,0.18 0,0.19 0,0 0,0.17 0,0.55 0,0.64 0,3.4 -0.09,0 0,0.73 -0.14,0 -0.52,0 0,0 -0.15,0 0,0.24 0.06,0.42 0,0.16 0.06,0.56 0,0.69 -0.18,0 0,0 -0.12,0 -4.4,0 0,0.74 -0.19,3.48 0,0.19 0,0.35 0.08,0 1.34,0 2.06,0 0.06,0.8 0,0 0.35,0 0,2.77 0,0.36 0,0.9 0,0.09 2.42,0 0.14,0 0.07,0 0.11,0.06 0.25,0.3 0.13,0.15 0.08,0.1 0.08,0.07 0.09,0.07 0.09,0 0.12,0 2,0 0.78,0 0.3,0 0.93,0 3.71,0 -0.05,1.78 0,0.34 0,3 -0.06,4.82 2.76,-0.12 0.65,0 0.58,0 0.66,0 1.1,0 0,9 5.28,0.5 4.24,0.41 4.58,0.45 0.21,0 0.29,0 5.87,1.78 9.12,2.7 0.71,0.2 0,-0.67 0.23,-13.05 0,0 0,-0.11 0,-0.11 0,0 0,-0.13 0.05,-6.49 0,-0.21 0,-2 0,-0.19 0,-1.06 0,-0.77 0.12,-5.17 0,-1.21 0,-4.16 0,0.13 0,0 0.06,-11.4"
       transform="translate(-148.49,-252.36)"
       id="path3628"
       style="fill:#51459c;stroke:#010101;stroke-width:1;stroke-linecap:square;stroke-linejoin:bevel;stroke-miterlimit:4;stroke-dasharray:none"
       name="Sunnyvale ISD"
       inkscape:connector-curvature="0" />
    <path
       class="cls-1"
       d="m 290.68,273.08 -1.83,0 -4,-0.05 -1.14,0 -1.18,0 -3.27,0 -2.44,0 -0.84,0 -0.35,0 -0.65,0 -8.46,0 -1.92,0 -0.56,0 -1.54,0 -0.41,0 -2,0 -0.76,0 0,0.28 -5.15,0 0,1.2 0,0.24 0,0.23 0,0.13 0.07,0.13 0.07,0.19 0,3.48 0,0.46 0,5.42 0,0.06 2.51,0 0,0 2.49,-0.05 0,0.09 0,3.72 0,0.07 0,1.25 0,1 0,0.73 0,0.47 0,0.56 0,0.77 0.06,0.14 0,4.63 0,1.09 0,0.9 0,1.44 0.68,0 1.55,0 3,0 0.18,0 4.74,0 0,1 0,0.51 0,5.11 0,0.53 0,0.74 0,0.13 0,0.22 0,0.08 0,0.11 0,0.09 0.12,0.25 -4.6,0 -0.11,0 -0.46,0 -0.37,0 -4.8,0 0,0.07 0,0.58 -3.52,0 -1.21,0 -0.37,0 0,-4.28 -0.55,0 -1.05,0 -0.76,0 -2.18,0 -0.61,-0.08 0,1.38 0,0.43 0,2.54 0.83,0 0,0.5 -0.83,0 0,2.23 0,0.47 0,2.73 -2.84,0 0,-1.61 -0.36,0 -0.12,0.22 0,0.07 -0.33,0.1 0,0 -0.05,0.1 -0.24,0 -0.24,0 -0.14,0 -0.74,0 0,1 -0.17,0 -0.25,0 -0.14,0 -0.06,-0.07 -0.89,-0.16 0,0.12 -0.11,0 -0.24,-0.06 -0.14,0.29 -1.48,0 -2.39,0 0,-1.13 -0.08,0 -0.38,0.11 -1.15,0.33 -0.14,0 -0.08,-0.27 0,-0.06 -0.3,-0.89 -0.06,-0.17 -0.13,-0.42 -0.08,0 -0.83,0 -0.11,0 -0.36,-0.06 -0.13,0 -4.52,0 -1,0 0,0.08 -0.42,2.25 0,0.13 -0.18,0.83 0,0.21 0,0.2 -0.19,1 -0.2,1 -0.08,0.38 0,0.29 -0.1,0.5 -0.12,0.56 -0.24,1 -0.49,2.53 0,0.19 -0.23,1.09 -0.22,1.15 0,0.12 -0.91,4.49 -0.23,1.13 -2.52,-0.11 -0.71,0.16 -4.46,0 -2.92,0 -0.13,0.09 -0.13,0.12 -0.13,0.16 -0.13,0.26 0,0.08 0,0.17 0,0.23 0.06,0.17 0.06,0.13 0.06,0.12 0.11,0.14 0.07,0.11 0,0.07 0,0 0.14,-0.08 0.12,0 0.2,0 0.14,0 0.1,0 0.1,0 0.07,0 0.31,-0.1 0.08,0 0.24,0 0,0 0,0 0,0 0.07,0.05 0.08,0.08 0.06,0.08 0,0.06 0,0.07 0,0.15 0,0.14 0,0.11 -0.07,0.16 0,0.07 -0.12,0.15 -0.11,0.1 -0.06,0 -0.05,0 -0.11,0 0,0.07 -0.06,0.06 0,0.06 0,0.1 -0.07,0.1 -0.12,0.22 0,0.31 0,0.38 0.08,0.37 0,0.52 0,0.35 -0.09,0.55 0,0.08 0,0.08 0,0.07 -0.07,0.11 -0.13,0.24 -0.29,0.36 -0.18,0.24 -0.17,0.23 -0.12,0.25 0,0.11 0,0.15 -0.06,0.2 -0.05,0.23 0,0.08 0,0.27 0,0.09 0,0.08 0,0.05 0.05,0.1 0.06,0.09 0.06,0.07 0.07,0.07 0,0 0.18,0.09 0.13,0.06 0.07,0 0.16,0.06 0.23,0.11 0.13,0.08 0.13,0.06 0.21,0.1 0.09,0 0.3,0.09 0.19,0 0.28,0 0.28,0 0.05,0 0.06,0 0.09,-0.06 0.09,-0.08 0,0 0.32,-0.36 0.14,-0.13 0.14,-0.11 0.09,-0.06 0.05,0 0,0 0.15,0 0,0.1 0,1.56 -0.18,0.07 -0.21,0.1 -0.18,0.09 -0.21,0.12 -0.23,0.15 -0.12,0.11 0,0.07 0,0.07 0,0.11 0,0.12 0,0.17 0,0.12 0,0.05 0,0 0,0 0.07,0.08 0.09,0.09 0,0 0,0 0.05,0 0.17,0 0.1,0 0.18,-0.06 0.1,0 0.13,-0.05 0.12,-0.06 0.09,0 0.27,0 0,0 0,0 0,0 0,0.06 0,0.1 0,0.06 0,0.09 0,0.06 -0.46,0.66 -0.1,0.17 0,0.08 0,0.1 0,0 0,0 0.1,0.13 0.05,0.06 0.08,0.05 0.08,0 0.06,0 0.06,0 0.7,0.06 0.12,0 0.12,0 0.12,0.06 0.12,0.08 0.1,0.07 0.05,0.05 0,0.06 0,0.07 0,0.08 0,0.08 0,0.14 0,0.09 0,0.09 0,0.07 0,0.07 0,0 0,0 0,0 -1.16,0.43 -0.1,0 -0.12,0.06 -0.07,0 -0.08,0.06 -0.05,0 -0.08,0.09 0,0.09 0,0.17 0,0.06 0,0 0,0 0,0 0.06,0 0,0 0.11,0 0.3,0.1 0.28,0.06 0.09,0 0.3,0 0.89,0.21 0.18,0 0.29,0.05 0.42,0.08 0.38,0.06 0.14,0 0.22,0 0.12,0 0.11,0 0.1,0 0.1,-0.07 0.1,-0.09 0.3,-0.32 0,0 0,0 0.06,0 0.18,0 0.05,0 0,0 0,0 0,0 0,0.08 0,0.11 0,0.13 0,0.12 -0.05,0.53 0,0.14 0,0 0,0.06 0.07,0.07 0.06,0 0.05,0 0.19,0 0.15,0 0.23,0 0.68,0 0.08,0 0.09,0 0,0 0.28,-0.14 0.07,0 0,0 0,0 0,0 0,0 0,-0.14 0,0.6 0,-0.23 0,-0.12 0,-0.06 0,-0.05 0,-0.06 0,0 0.08,0 0.12,0 0.27,0 0.07,0 0.05,0 0.05,0 0,0.05 0.06,0.08 0,0.08 0,0.1 0.07,0.38 0.09,0.37 0,0.06 0.07,0.15 0,0.06 0.06,0.06 0.06,0.06 0.1,0.06 0.12,0.05 0.15,0.05 0.1,0 0.16,0 0.09,0 0.09,0 0.2,-0.09 0.34,-0.17 0.08,0 0.1,0 0.1,0 0.07,0 0.09,0 0.2,0 0.06,0 0.15,0.07 0.1,0.05 0,0 0.05,0 0.08,0.07 0.06,0.08 0,0.08 0.06,0.23 0,0.09 0.07,0.15 0.06,0.08 0.07,0.07 0.07,0.06 0,0 0,0 0.07,0 0.18,0.07 0.08,0 0.13,0 0.22,0 0.22,0 0.28,-0.07 0.16,-0.05 0.09,0 0.21,0 0.06,0 0,0 0,0 0,0.05 0,0.14 0,0.36 0,0 0,0.07 0.07,0.08 0,0 0.12,0.1 0.07,0 0.13,0.06 0.06,0 0.46,0.13 1,0 0.16,0 0.06,0 0.05,0 0.09,-0.09 0.13,-0.18 0.12,-0.24 0,-0.06 0,-0.06 0,0 0.06,0 0.09,0 0.12,0 0.29,0 0.16,0 0.13,0.05 0.18,0.11 0.12,0.1 0.09,0.09 0,0.05 0.06,0.11 0,0.06 0,0.1 0,0.24 0,0 0,0 -0.46,0.44 -0.06,0.08 0,0.12 0,0.09 0.07,0.06 0,0 0.08,0 0,0 0.06,0 0.12,0 0.23,0 0.15,0 0.51,-0.08 0.22,-0.06 0.16,-0.06 0.34,-0.14 0.09,0 0.16,0 0.12,0 0.1,0 0.06,0 0.06,0 0.21,0.19 0.07,0.08 0,0.06 0.06,0.11 0,0.07 0,0.06 0,0.11 -0.1,0.29 0,0.5 0,0.1 0,0.05 0.05,0.09 0.07,0.07 0.18,0.14 0.07,0.08 -0.21,0.15 -0.07,0.05 0.3,0.18 0.24,0.15 0.31,0.09 0.36,0.06 0.35,0 0.35,-0.15 0.25,-0.19 0.18,-0.16 0.08,0 0.09,0.06 0,0.16 -0.11,0.29 -0.13,0.28 -0.13,0.24 -0.11,0.13 -0.09,0.19 0,0.17 0,0.27 0,0.15 0,0.07 0,0.9 0,0 0,0.35 0,0.3 0,1.54 0,0 0,0.7 0,0.26 -0.07,0.19 -0.09,0.27 0,0.34 0.07,0.32 0.25,0.42 0,0.22 -0.18,0.64 0,0.25 -0.11,0.28 0,0.06 -0.19,0.53 0,0.09 -0.08,0 -0.11,0.27 -0.08,0.08 -0.66,0.69 -2.9,2.8 -0.44,0.41 -0.68,0.75 -0.34,0.3 -0.88,0.71 -0.47,0.41 -0.55,0.39 -0.33,0.32 0,0.49 -0.54,0.53 -0.22,0.2 -0.31,0.35 -0.05,0.07 -0.11,0.16 -0.16,0.25 0,0.11 0,0.05 -0.06,0.14 -0.06,0.36 -0.07,0.48 1.2,0 0.42,0 1.42,0 0.26,0 0.36,0 2,0.07 2,0 2.24,0.09 1.33,0.06 0.37,0 1.19,0 0.34,0 0,3.45 0.27,0 0,2.4 0,0.72 0,0.2 0,0.17 0.1,0.72 0.08,0.66 0.13,1 0.29,2.3 0,0.12 0.13,0.47 0,1.92 -0.07,0.31 -0.15,-0.16 -0.15,-0.21 0.47,0.01 -0.09,-0.11 0,0 0,0 -0.15,-0.07 -0.17,-0.05 -0.07,0 -0.29,0 -0.51,0.08 -0.1,0 0,0 0,0 -0.12,-0.14 0,0 0,0 0,0 -0.07,0 -0.43,0 -0.07,0 -0.08,0 -0.21,0.11 -0.57,0.28 -0.09,0 -0.07,0 -0.07,0 -0.09,0 -0.42,0 -0.33,0 -0.18,0 -0.08,0 0,0 -0.05,0 -0.11,0 0,0 0,0 0,0 -0.07,0 -0.15,0.06 0,0 -0.09,0 0,0 -0.35,0.13 -0.23,0.06 -0.15,0 -0.07,0 -0.07,0 0,0 0,-0.07 0,-0.11 0,-0.07 0,0 0,0 0.06,0 0.14,-0.07 0.21,-0.14 0.08,-0.07 0,-0.05 0.1,-0.14 0.16,-0.22 0.06,-0.09 0,-0.09 0,-0.32 0,-0.1 0,-0.06 0,0 -0.08,-0.1 -0.07,-0.08 -0.09,0 -0.23,-0.08 -0.22,0 -0.63,0.15 -0.32,0.05 -0.17,0 -0.15,0 -0.12,-0.06 -0.24,-0.16 -0.87,-0.84 -0.2,-0.1 -0.06,0 -0.2,0 -0.07,0 0,0 -0.34,0.39 -0.14,0.13 -0.09,0.07 -0.09,0 -0.11,0 -0.54,-0.13 -0.11,0 -0.32,0 -0.35,0 -0.32,0 -0.12,0 -0.06,0 -0.07,-0.06 -0.16,-0.3 -0.12,-0.07 -0.42,0 -0.18,0 -0.32,0.09 -0.31,0.13 -0.22,0.12 0,0 -0.05,0.05 -0.06,0.07 0,0.09 0,0.11 0,0.08 0.07,0.08 0,0 0.06,0 0.16,0 0.15,0 0.15,0 0.08,0 0.07,0 0.1,0.08 0.24,0.27 0.07,0.07 0.09,0.06 0.14,0.11 0.07,0.06 0,0 0.07,0.08 0,0.05 0,0.16 0,0.08 0,0 0,0 -0.05,0.06 -0.09,0.06 -0.2,0.07 -0.21,0 -0.18,0 -0.26,0 -0.08,0 -0.13,0 -0.07,0 -0.07,-0.08 -0.28,-0.34 -0.09,-0.09 0,0 0,0 -0.14,0 -0.16,0 -0.26,0.13 -0.1,0.14 -0.88,0.59 -0.3,0.18 0.14,-0.24 0.16,-0.3 -0.5,0.06 -0.74,0 0,0.46 0,0.14 -0.05,0.13 -0.14,0.46 -0.12,0.33 -0.17,0.36 -0.16,0.28 -0.23,0.36 -0.23,0.45 -0.2,0.23 -0.18,0.16 -0.2,0.15 -0.17,0.11 -0.1,0.07 -0.06,0 -0.12,0 -0.09,0 -0.14,0 -0.16,0 -0.29,0 -0.16,0 -0.1,0 -0.17,-0.08 -0.39,-0.2 -0.16,-0.09 -0.08,0.06 0,0 0,0 -0.21,0 -0.29,0 -0.17,0 -0.18,0 -0.15,0 -0.15,0.06 0,0 0,0 0,0 0,0 0,0.07 0,0.12 0,0.29 0.07,0.23 -0.12,0 0,0.29 0.06,0.1 0.11,0.15 0.12,0.1 0,0 0,0 0.15,0 0.39,-0.13 0.18,0 0.25,-0.06 0.07,0 0,0 0.05,0 0,0 0,0 0,0.76 0.14,0.52 0.13,0.45 0,0.14 0,0 0.43,0.13 0.69,0.18 0.13,0 0.29,0 0.14,0 0,0 0,0 0,0 0.21,0.11 0,0.06 0.09,0 0,0 0,0 0,0.1 0,0.12 0,0.13 0,0.12 0,0.06 0,0 -0.08,0.13 -0.06,0.09 -0.14,0.18 -0.3,0.48 0,0 0,0.05 0,0.15 0,0.16 0,0.21 0,0 0.22,0.38 0.08,0.15 0,0.05 0,0 0,0.2 0,0.09 -0.07,0.2 0,0 0,0 0,0 -0.07,0 0,0 -0.12,0.12 -0.16,0.15 -0.1,0.07 0,0 -0.11,0.14 0,0.15 0,0.06 0,0.16 0,0.09 0,0.11 -0.05,0.1 0,0.09 -0.08,0.12 -0.08,0.06 -0.46,0 -0.08,0 -0.13,0.05 0,0 -0.15,0 -0.22,0 -0.12,0.47 0,0.24 0.08,0.73 0,0.2 0.08,0.15 0,0.65 -0.35,0 -0.48,0 -0.06,0.09 -0.22,0.34 -0.14,0.22 -0.07,0.1 -0.12,0.18 -0.2,0.1 -0.46,0.23 0.1,0.17 0,0 0.09,0.15 0,0 -0.34,0.08 -0.25,0.06 0,0.24 -0.53,0.25 -1.65,0.79 -0.12,0.06 -0.18,-0.18 -0.32,-0.06 0.06,0.3 0.21,0.25 0.09,0.06 0,0 0,0 0,0.08 0,0.11 0,0.12 -0.08,0.18 0,0 -0.2,0.25 -0.17,0.27 -0.14,0.27 0,0.12 0,0.16 -0.1,0.47 -0.06,0.2 -0.23,0.91 0,0.18 0,0.09 0,0.61 0,0.11 0.06,0.11 0.06,0.12 0,0.08 0,0.1 0,0.08 -0.06,0.12 -0.06,0.2 -0.14,0.52 0,0.23 0,0.3 0,0.34 0,0.45 0,0.48 0,0.11 0,0.27 0,0.07 -0.08,0.75 0,0.06 0,0 0,0.1 0,0.16 0,0.06 0,0.46 0,0.22 -0.1,0.2 -0.32,0 -0.33,0 -0.4,-0.06 0,1.36 -0.57,0.71 0.9,0 0.25,0 -0.12,0.19 0,0.07 -0.06,0.13 -0.06,0.14 -0.09,0.23 -0.54,1.17 -0.07,0.16 -0.07,0.15 -0.26,0.58 -0.45,1 -0.19,0.47 -0.08,0.24 0,0.11 0,0.13 0,0.3 0,1.62 0,1 0,4.73 0,0.1 0,0.08 0,0 0,0.08 0,0.06 -0.08,0.07 -0.07,0 -0.11,0.07 -0.09,0 -0.22,0.06 -0.13,0 -5.53,0 -0.2,0 -0.15,0 -0.13,0 -0.1,0 -0.36,0.17 -0.78,0.38 -0.16,0.08 -1.31,0.64 -0.15,0.07 -0.23,0.11 -0.42,0.22 -0.22,0.12 -0.1,0.09 -0.25,0.26 -0.4,0.39 -0.09,0.08 -0.14,0.15 -0.09,0.1 -0.27,0.26 -0.12,0.13 -0.18,0.23 -0.1,0.16 0,0.07 0,0.08 0,0.6 0,1.9 0,0.31 -0.06,0.35 -0.06,0.24 0,0.06 -0.05,0.1 -0.11,0.24 -0.2,0.31 0,0.05 -0.12,0.15 -0.2,0.22 -0.2,0.2 -2.17,1.83 -0.38,0.39 -0.56,0.54 -2.36,2.21 -0.67,0.64 -0.07,0.07 -0.07,0.1 0,0.11 0,0.06 0,0.06 0,0.06 0,0.07 0,3.07 0,1.55 -2.07,-0.11 -0.4,1.79 -0.84,3.62 -0.81,1.66 16.21,0 0.07,-2.18 -0.77,-0.34 -0.71,-0.31 -0.59,-0.26 -3,0 0,-2.89 -0.05,-11.11 0.49,0 0,-0.22 0,0 0.09,0 0.13,0 0.17,0 3.29,0 0.67,0 0.7,0 1.32,0.09 3.77,0 0.24,0 0.27,0 0.17,0 0.17,0 0.17,0 0.23,0 0.29,-0.06 0.29,-0.06 0.18,0 0.18,0 0.42,0 2.78,0 0.11,0 0.19,0 0.45,0.07 0.29,0 8.61,0 0,0.45 0,1.77 0,4.52 2.66,0 0,0.06 0.33,0 0,-0.18 0.56,0 0.66,0 1.52,0 0.74,0 0,0.42 0,0.36 2.29,0 1.33,0 0,0.4 0,0.46 0,0.37 0.07,0 0.09,0 0.09,0 0.11,0 0.08,0 0.11,0 0.12,0 1.56,0 0.15,0 1.54,0 0.42,0 0.33,0 0.5,0 0,0.93 0.06,1.26 0,0.31 0,0.19 0,0.11 0,0.15 0,0.73 0,1 0,4.12 -3.33,0 -0.88,0 -1,0 0,6.37 0,1.06 0,5.7 0.15,0 3.16,0.06 0.42,0 1.42,-0.1 0.82,-0.06 0.73,0 0.57,0.08 0.28,0 0.53,0 0.53,0 0.62,0 0.63,0 0.54,0 0,1.2 0,0 0,0.46 0,1.86 0,0.76 -2.63,0 0,0.64 0,0 0,8.12 2.7,-0.08 -0.16,0.12 -0.06,0 0,2.91 0,1 0,0.3 -1.54,0 -3.69,0 -0.14,0 -3.62,0 -0.15,0 0.05,0.05 0.06,0.07 0,0 0,0.06 0,0.07 0.21,0 0.11,0.14 0.34,0 0,0 0.08,0.13 0.06,0.11 0,0 0,0.07 0,0.07 0.08,0 0,0 0,0 0.09,0 0,0.39 0.11,0 0,0.88 -0.14,0 0.11,0.89 -0.74,0.11 0.05,0 0.25,0.05 0.08,0 0.08,0 0,0 0.1,0 0.12,0 0.06,0 0.23,0.09 0,0 0.06,0.05 0,0 0,0 0,0 0,0.05 0.06,0 0.27,0 0.4,0.15 0.18,0 -0.08,0.08 0.39,-0.09 0.17,0 0.2,0 0.08,0 0.21,0.15 0.17,0.13 0,0 0.06,0 0.11,0 0.81,0.05 0.25,0 0.43,0 0.53,0 0.34,0 5.53,0 1.36,0 5.39,0 0.16,0 1.84,0 0.41,0 2.83,0 0.65,0 2.57,0 1.12,0 7,0 0.47,0 0.07,0 0.08,0 0.42,-0.08 0.3,0 0.58,0 0.74,0 0.36,0.05 0.2,0 0.28,0.05 0.46,0 0.23,0 0.81,0 0,-1 0,-0.78 0,-1.28 0,-0.6 0,-2.38 0,-2.61 0,-6.35 0,-1.58 0,-0.7 0.31,0 0.61,0 0.1,0 1.06,0 8.37,0 0,-2.18 4.95,-2.39 0.79,-0.39 0.52,0.76 1.61,2.35 0.48,0.69 0.71,1 1.07,1.56 0.1,0.15 0.27,0.39 -3.32,2.12 -1.26,0.61 2.51,3.69 0.08,0 0.66,-0.32 0.42,-0.2 2,2.86 3.3,4.81 1,-0.49 0.5,-0.24 2,-1 0.47,-0.26 0.46,-0.23 0.61,-0.31 0.31,-0.15 0.1,0 0.1,0 0.06,0 0.55,-0.26 0,0 0.79,-0.4 1.12,-0.54 0.47,-0.22 0.35,-0.16 1,-0.39 0.34,-0.13 0.32,-0.14 0.63,-0.29 0.22,-0.1 0.08,0 0.26,-0.16 0.08,-0.06 0.11,-0.07 0.12,-0.08 2.63,4 6,0 1,0 0,0.06 -0.24,1.47 -0.3,1.87 -0.14,0.79 0.19,0 0,0.06 0.14,0 0.24,-1.38 0.26,-1.54 0.23,-1.33 0.66,0 0.36,0.54 0.07,0.11 0.39,-0.42 0.71,-0.33 0.12,-0.06 0.2,-0.09 0.72,0 1.74,0 0,4.41 9,0 0.09,0 0,0 1,0 0,6.81 0.14,0 0,1.89 3.52,0 0,4.4 0,2.06 0,0.11 -0.06,3.43 0,0.18 0.31,0 0.61,0 -0.16,2.74 -2.14,0.93 -0.5,0.22 1.28,2 -2.43,1.52 -0.21,-0.15 -0.22,-0.15 -1.24,1.34 -0.17,0.48 -0.35,1 0,0.11 0,0 0,0 0,0.26 0,0 0,0 0,0 0.16,0 0,-0.06 0,0 0,-0.07 0,0 0.18,0 0,0 0,0.21 0,0 0,0 0,0 0,0 0,0 0.06,0 0,0 0.09,0 0.06,0 0.06,0 0.24,0.21 0.09,0.07 0.25,0.15 0.08,0 0.06,0 0,0 0,0 0,0.11 0,0.05 0,0.09 0,0 0.12,0.06 0.05,0 0,0 0,0 0,0 0,0 0,0 0,0.06 0,0.27 0,0 0,0 0,0 0,0 0.09,0 0,0 0,0 0,0 0,0 0,0 0,0.09 0,0 0,0 0.06,0.05 0.06,0 1.33,0 0.06,0 0.17,0 0.06,0 0.2,0 0,0 0.33,0 0,0 0,0 0,0 0,0.32 0,0 0,0 0,0 0.13,0 0,0 0,0 0,0 0,0 0,0 0.24,0 0,0 0.06,0.06 0.07,0.07 0,0 0,0.07 0,0 0.12,0 0.19,0 0.12,0 0,0 0,0 0,0 0,0 0,0.05 0,0 0,0 0,0 0,0 0.22,0 0.16,0 0.87,0 0,0 0,0 0,0.21 0,0.07 0,0 0.16,0 0.07,-0.05 0.06,0 0.06,0 0,0 0,0 0,0.25 0,0 0,0 -0.06,0.08 0,0.14 0,0 0,0 0,0 0,0 0,0 0.15,0 0.18,0 0,0 0,0 0,0.16 0,0 0,0.07 0,0.1 0,0.06 0,0 0,0 0.09,0.06 0.05,0 0,0 0.13,0 0,0 0,0 0,0 0,0 0,0.05 0,0.25 0,0 0,0 0.11,0 0.06,0 0.13,0 0,0 0,0 0,0 0,0.1 0,0 0,0 0,0.06 0,0.09 0,0.12 0,0.09 0,0 0,0 0,0 0,0 0.19,0 0,0 0,0 0,0 0,0 0.06,0 0,0 0,0 0,0 0.1,0 0,0 0,0 0,0 0,0 0.07,0.06 0,0 0,0 1.39,0 0,0 0,0 0,-0.06 0,-0.07 0,0 0,-0.06 0,0 0.32,0 0,0 0.1,-0.06 0.25,0 0,0 0.06,0.06 0.07,0 0.09,0 0.12,0.06 0,0 0.12,0 0.12,0 0,0 0,0 0.24,0 0.13,0 0.06,0 0,0 0.05,0 0,0 0,0 0,0 0,0 0,0 0.26,-0.07 0.17,0 0.23,-0.05 0.08,0 0.11,0 0.08,0 0.58,0 0.09,0 0,0 0.18,0 0,0 0,0 0,0 0,2.31 0,0 0,0 0.05,0.05 0,0 0,0 0.24,0 0,0 0.05,0 0.11,0.15 0,0 0,0 0,0 0.1,0.07 0,0 0.07,0 0.06,0 0.17,0 0.06,0 0.06,0 1,0 0,0 0,0 0,0 0,0 0,0 0,0 0,0 0,0 0,0 0,-0.06 0,0 0.06,-0.08 0,0 0.1,0 0,-0.07 0.16,0 0.06,-0.06 0,0 0.16,0 0,0 0.06,0.07 0,0.06 0,0 0,0 0,0 0,0 0.09,0.06 0.12,0 0,0 0,0 0.09,0 0.12,0.06 0.06,0 0,0 0.05,0.05 0,0 0.08,0.06 0,0 0.05,0.07 0.05,0.1 0,0.06 0,0.17 0,0 0.15,0 0.08,0 0.08,0 0,0 1.9,0 0.09,0 0,0 0.08,0 0,0 0.06,0 0.13,0 0.33,0 0,0 0.07,-0.07 0.05,0 0.19,0.31 0.05,0 0.06,0 0.13,0 0.11,0 0.18,0 0.11,0 0,0 0,0 0,0 0,0.09 0,0.36 0,0.06 0.07,0.08 0.06,0.08 0,0 0,0 0,0 0.06,0.09 0,0 0,0 0,0 0.07,0 0.11,0 0.11,0 0,0 0.08,0 0.09,0.07 0.08,0.07 0,0 0,0 0.08,0 0.21,0 0.09,0 0,0 0.06,0 0.06,0 0,0 0,0 0.05,0 0.1,0.06 0.11,0 0.07,0 0.12,0 0.08,0 0.14,0 0.05,0 0.18,0 0,0 0,0 0,-0.12 0,0 0,0 0,-0.05 0,0 0,0 0,-0.12 0,0 0,0 0,0 0.2,0 0.24,0.11 0.44,0 0,0 0,0 0,0 0,0.08 0,0.07 0,0 0.07,0.05 0,0 0,0 0.09,0.08 0.06,0 0.19,0.14 0,0 0.06,0.05 0,0 0,0 0.08,0 0.18,0 0,0 0,0 0,0 0,0 0,0 0,-0.06 0,-0.12 0,0 0,0 0,-0.11 0,0 0,0 0,0 0.08,0 0.05,0 0.08,0 0.38,0 0.09,0 0.06,0 0,0 0.09,-0.06 0,0 0.12,0 0,0 0.06,0 0,0 0.1,0 0.09,0 0,0 0,0 0,0 0,-0.09 0,-0.06 0,-0.06 0,-0.06 0,-0.4 0,0 0.06,0 0,0 0.2,0 0.08,0 0.14,0 0.12,0 0.11,0 0,0 0,0 0,0 0,0 0.12,0 0.06,0 0.07,0 0.22,0 0,0 0.12,0.08 0.06,0 0,0 0,0 0.13,0.11 0,0 0.06,0.08 0.05,0.06 0,0 0.06,0.06 0.1,0.12 0.07,0.09 0.14,0.16 0,0 0,0 0,0 0.21,0 0,0 0,0 0,0 0,0 0,0 0,0 0.12,0 0.1,0 0.11,0 1.91,0 0.18,0 0.15,0 0,0 0,0 0.12,0.11 0,0 0,0 0.08,0 0,0 0,0 0.1,0.07 0.07,0.05 0.07,0 0.06,0 0.1,0.05 0.07,0 0.08,0 0,0 0,0 0,0 0.07,0 0.24,0 0.07,-0.06 0,0 0,0 0.22,0 0.1,0 0.06,0 0.11,0.05 0,0 0,0 0,0 0,0 0,0.14 0,0 0,0 0,0 0.15,0 0.07,0 0,0 0,0 0,0 0,0 0,0.6 0,0 0,0 0,-0.09 0,-0.11 0,-0.19 0,0 0,0 0.19,-0.1 0.09,0 0.1,0 1.45,0 0,-0.14 0,-0.15 -0.07,-0.31 -0.05,-0.22 0,-0.16 -0.06,-0.15 -0.11,-0.28 -0.19,-0.4 -0.14,-0.27 -0.17,-0.26 -0.14,-0.2 -0.12,-0.17 -0.19,-0.23 -0.17,-0.19 -0.3,-0.32 -0.83,-0.76 -1.86,-1.61 -0.24,-0.21 2.34,-1.12 1,-0.49 0.17,-0.08 0.11,-0.05 0.14,-0.06 0.91,-0.44 0.43,-0.21 0.21,-0.1 0.95,-0.46 2.63,-1.28 0.84,1.22 0.92,1.33 0.82,1.25 0.4,0.61 0.15,0.23 0.27,0.4 0.69,1 1.93,2.73 0.15,0.21 0.85,1.26 0,0 0.12,0.17 1.16,1.71 1.59,2.35 0.27,1.86 6.39,0.06 3.46,0 4.68,0.06 2.52,0 16,0 2.65,0 2.86,0 2.49,0 4.45,0 3.72,0 4.35,0 3.79,0 8.06,0 2.4,0 3.7,0 0,-0.23 0,-2.12 0,-3.71 0,-1.51 0,0 0,-1 0.06,-2.94 0,-1.13 0,-0.27 0.06,-1.57 0,-0.42 0,0 0,-0.12 0,0 0,0 0,0 0,-0.23 0,0 0,-1.11 0,-0.64 0,-1.79 0,0 0,-0.6 0,0 0,-0.25 0.07,-3.44 0,-2.91 0,-1.83 0,-1.15 0.07,-2.77 0,-1.08 0,-1.24 0,-0.38 0,-1.36 0,-2.74 0,-3.83 0,-0.55 0.08,-6.73 0,-0.33 0,-4.48 0.11,-4 0,-1 0,0 0,-0.26 0.16,-9.59 0,-0.42 -0.1,-0.24 0,-0.08 -0.06,-0.08 -0.05,-0.06 -0.09,-0.05 -0.11,0 -0.12,0 -0.09,0 -0.11,-0.05 -0.11,-0.06 -0.22,-0.14 -0.07,-0.06 -0.11,-0.15 -0.07,-0.13 -0.07,-0.14 -0.08,-0.18 0,-0.1 0,-0.09 -0.1,-0.16 -0.05,-0.11 -0.06,-0.12 -0.06,-0.1 -0.06,-0.12 -0.08,-0.13 -0.08,-0.13 -0.14,-0.14 -0.09,-0.09 -0.07,-0.08 -0.12,-0.14 -0.08,-0.1 -0.11,-0.2 -0.06,-0.12 -0.05,-0.12 -0.07,-0.15 0,-0.07 0.2,-0.22 0,-0.06 0,-0.06 -0.09,-0.15 0,-0.07 -0.09,-0.14 -0.06,-0.09 -0.06,-0.08 -0.05,-0.09 -0.07,-0.15 0,-0.07 0,0 -0.06,0 -0.06,0 -0.07,0 -0.08,0 0,0 0,0 0,0 0,-0.13 0,-0.11 0,0 0,0 0.09,-0.07 0.14,-0.13 0,0 0,0 0,-0.05 0,-0.06 0,-0.06 -0.07,-0.08 -0.07,-0.08 -0.05,-0.09 0,-0.08 0,-0.12 0,0 0,0 0.2,0 0.06,0 0.13,0.08 0.1,0 0.09,0 0.09,0 0.18,0 0.06,0 0.05,0 0,0 0,-0.06 0,-0.08 0,-0.09 0,-0.83 0,-0.07 0,-0.06 -0.05,-0.09 -0.11,-0.14 -0.08,-0.1 -0.11,-0.08 -0.12,-0.09 -0.09,-0.06 -0.06,-0.06 -0.12,-0.16 0,-0.06 0,0 -0.07,-0.06 -0.18,-0.12 -0.08,-0.06 -0.06,-0.07 0,-0.08 0,-0.07 0,-0.1 0,-0.09 0,-0.11 0,-0.09 0,-0.07 0,-0.08 0,-0.08 -0.06,-0.12 0,0 0,0 -0.07,0 -0.21,0 -0.07,0 0,0 0,0 0,-0.05 0,-0.06 0,-0.06 0,-0.05 0,-0.14 0,-0.06 0,-0.06 -0.77,-0.35 0,-0.06 0,-0.07 0,-0.08 0,-0.12 0,-0.07 0,-0.05 0,-0.12 0,-0.06 0,0 -0.09,-0.08 -0.07,-0.06 -0.06,0 -0.05,-0.05 0,0 0,-0.06 0,-0.07 0,-0.08 0,-0.3 0,-0.11 0,-0.06 0,0 0,0 -0.05,0 -0.15,0 -0.13,0 -0.06,0 0,-0.09 0,-0.06 0.09,-0.1 0,-0.21 0,-0.06 0,0 0.07,-0.09 0,0 -4.27,3.66 0,0 -0.07,0 -0.07,0 -0.05,0 -0.09,0.05 -0.08,0.08 -0.06,0.06 -0.09,0.12 0,0 -0.09,0 -0.12,0 -0.09,0 -0.1,0 -0.08,0 -0.13,0 0,0 0,-0.06 0,-0.09 0,-0.1 0,-0.19 0,0 0,0 -0.07,0 -0.09,0 -0.43,0 -0.07,0 -0.07,0 -0.1,-0.07 -0.17,0 -0.18,0 -0.12,0 -0.19,0 -0.16,0 0,0 0,0 0,0 0,0 -0.1,-0.08 -0.06,0 -0.09,0 -0.1,0 -0.24,0 -0.45,-0.35 -1.49,-1.32 -1.85,-1.57 -2.09,-1.79 -1.13,-1 -0.84,0.72 -1,0.85 -0.86,0.72 -0.37,0.3 -0.38,0.37 -0.19,0.21 -0.18,0.19 -0.06,0.06 -0.07,0.06 -0.1,0.05 -0.12,0 -0.77,0.06 -1.25,0.1 -0.16,0 -0.21,0 -0.32,0 -0.24,0 -0.25,0 -0.19,0 -0.43,0 -0.26,0 -1,0.09 -0.08,0 -1.08,0.09 -0.11,0 -0.13,-0.07 -0.28,-0.24 -0.21,-0.15 0,0 0.23,-0.19 0,0 0.84,-0.73 -0.17,-0.16 -1,-0.81 -0.26,-0.23 -0.08,-0.09 -0.06,-0.07 0,-0.05 0,0 0,0 0.24,-0.26 0,0 0.18,-0.19 0.07,-0.09 0,-0.13 -0.08,-0.1 -0.2,-0.2 -0.32,-0.3 -0.34,-0.29 -0.11,-0.1 -0.19,-0.19 0,0 -0.06,-0.1 -0.05,-0.12 0,-0.08 0,-0.06 -0.06,-0.13 -0.08,-0.12 -0.11,-0.1 -0.21,-0.18 -0.48,-0.42 -0.44,-0.38 -1.58,-1.35 1,-0.81 0.37,-0.32 -0.52,-0.45 -0.23,-0.2 -0.77,-0.65 -0.27,-0.22 -0.49,-0.43 -0.66,-0.56 -0.26,0.2 -0.07,0.06 -0.28,0.23 -0.22,0.2 -0.2,0.16 -0.05,0 -0.06,0 -0.1,0 0,0 -1.54,-1.21 -1.13,-1 0,0 0.05,0 -4.48,-0.09 -2.71,0 -1.22,0 0,0 0,0 0,0 -0.05,-0.09 -0.06,-0.12 -0.07,-0.14 -0.09,-0.23 0,-0.07 0,-0.73 0,-0.23 0,-2.53 -0.07,0 -1.78,0 -3.44,0 0,-1.16 0,-4.58 0,-0.44 0,-0.51 -0.51,0 -0.19,0 -0.32,0 -0.89,0 -0.06,0 -1,0 -0.66,0 -0.3,0 -0.57,0 -0.62,0 -1.98,0 -0.18,0 -0.5,-0.09 -0.28,0 -0.23,0 -2.27,0 -0.36,0.05 0,-0.49 0,-0.52 0,-14.16 0,-1.35 0,-1 -0.13,-0.15 -2.09,-1.8 -0.8,-0.7 -0.25,-0.22 -0.77,-0.67 -0.53,-0.45 -0.11,-0.1 -0.16,-0.13 -0.26,-0.22 -0.24,-0.21 -1.16,-1 -0.2,-0.18 -0.23,-0.19 -0.14,-0.13 0,0 0,-0.06 -2,-1.88 -0.47,-0.08 -0.2,0 0.12,-0.39 0,-1.13 0,-0.25 -0.38,0 0.1,-0.06 0,-0.11 0.07,-0.11 0.06,-0.08 0.08,-0.09 -0.06,-0.06 -0.58,-0.47 -0.07,-0.06 -0.11,-0.1 -0.65,-0.55 -0.06,0 -0.05,0 0,0 -0.07,-0.07 -0.47,-0.39 -1.15,-1 -0.81,-0.69 0,0 -0.88,-0.76 -0.43,-0.41 -0.08,-0.06 -0.13,-0.11 -0.29,-0.26 -0.13,-0.11 -1.37,-1.14 -0.19,-0.15 -0.47,-0.39 -0.37,-0.32 -0.05,0 -0.9,0 -0.08,0 -0.07,0 -1.29,0 0,-0.46 0,-0.57 0,-0.18 0,-0.12 -0.05,-0.15 0,-0.06 0,-0.05 0,0 0,-0.07 0,-0.06 -0.07,-0.13 -0.08,-0.12 -0.12,-0.16 -0.11,-0.12 -0.28,-0.26 -0.07,-0.06 -0.13,-0.09 -0.45,-0.39 -0.63,-0.59 -1.59,-1.58 -1,-0.55 -0.22,-0.18 0,0 -0.75,-0.62 -0.74,-0.61 -0.71,-0.59 -0.56,-0.46 -0.49,-0.41 6.35,0 0,-0.07 0.05,-1.77 0,-3.9 0,-0.08 0.11,-0.31 0,-0.11 0,-0.29 0,-0.09 0,-0.11 0,-0.08 0,-0.1 0,-0.09 0,-0.08 0,0 -0.08,-0.26 0,-0.12 0,-0.12 0,-0.17 0.05,-0.19 0,-0.09 0.06,-0.16 0,-0.66 1.47,0 0.06,0 0,0 0.05,0 0,0 0,-0.18 0,-1.31 0,0 0,0 -0.06,0 -0.09,-0.06 0.17,-0.25 0.08,-0.22 0,-1.47 0,-0.52 1.75,-0.05 0,-0.57 0,-0.24 0,-2.1 0,-0.14 0,-1.46 1.82,0 0.42,0 0.44,0 0,-5.4 0,-1.29 -0.05,-0.58 0,0 0.09,-0.08 -0.54,-0.46 0,0 -0.06,-0.08 2,-1.69 0.44,-0.4 1.25,1.2 0.36,0.22 1.9,-1.62 -0.12,-0.11 -0.18,-0.15 -0.28,-0.25 -0.3,-0.25 -0.39,-0.33 -0.21,-0.17 -0.26,-0.23 -0.09,-0.08 -0.24,-0.2 -0.46,-0.39 -0.15,-0.12 -0.21,-0.18 -0.26,-0.22 0.38,-0.36 0,0 0.15,-0.12 0.26,-0.15 0.31,-0.27 0.32,-0.31 0.38,-0.49 0.54,-0.87 0.1,-0.17 0.13,-0.21 0.28,-0.46 0,-0.07 0.56,-1.3 0.5,0.42 1.77,1.38 0.28,0.23 0.77,0.62 0.72,0.37 0.29,0.13 0.38,0.08 0.27,0.05 0.31,0.07 0.25,0.09 0.27,0.14 0.18,0.15 0.22,0.18 0.19,0.14 0.2,0.17 0.25,0.24 0.16,0.13 0.14,-0.13 0,0 0,0 0.08,-0.07 -0.13,-0.24 -0.25,-0.27 -0.17,-0.27 -0.29,-0.29 0,-0.12 0,-0.27 -5.61,-4.85 -0.34,0.09 -0.16,0 -1,-0.78 -0.08,-0.06 0.11,-0.09 0.16,-0.13 0.18,-0.15 0.08,-0.07 0.16,-0.14 0.08,-0.06 0,-0.13 -0.91,-0.1 -0.26,0 -0.81,0 -2.92,-0.06 -0.18,0.06 -5.31,0 0,-5.56 0,-0.18 0,-3.1 0,0 0,-4.41 -0.06,0 -0.46,0 -5.77,0 -1,0 -1.17,0 -2.42,0 -0.28,0 -0.3,0 -4.24,0 0,4.74 0,0.69 0,0.1 0,0.61 0,1.77 0,0.85 -0.76,0 -0.08,0 -11.5,0 -0.17,0 -0.09,0 -0.95,-0.82 -0.49,-0.45 -0.16,-0.14 -1,0.85 -0.09,0.09 0.48,0.66 -0.1,0.09 -0.4,0.35 -0.4,-0.35 -0.08,-0.07 -0.08,-0.07 -0.42,0.3 0,0 -2.15,-1.85 -0.15,0.14 -0.59,0.53 -0.21,0.17 -0.07,0.06 -0.06,0.06 0,0 -0.06,0.05 -0.16,0.13 -0.3,0.24 -0.26,0.21 -0.35,0.28 -0.46,0.4 -0.09,0.09 -0.1,0.11 -0.07,0.08 -0.22,0.26 -0.17,0.19 -0.08,0.08 -0.09,0.09 -0.32,0.27 -0.08,0.06 -0.18,-0.3 -0.14,-0.26 -0.48,-1 -0.17,-0.31 -0.48,-0.92 -0.12,-0.22 0,-0.05 0,-0.08 -1,-1.6 -0.1,-0.16 0.37,-0.71 -0.35,0.31 -0.09,-0.22 -2.74,2.1 -0.17,-0.21 0,-0.29 0,0 -0.06,0 -0.15,0 0,0 -0.06,0 0,0 -0.13,0 0,0 0,0 -0.08,0 -0.11,-0.09 0,0 0,0 0,0 0,0 0,0 0,-0.07 0,-0.07 0,-0.11 0,-0.18 0,-0.08 0,-0.07 0,0 0,0 0.08,-0.1 0,0 0,0 0,-0.05 0,0 0,0 0,0 0,0 0,-0.12 0,0 0.05,-0.07 0,-0.06 0,-0.08 0,-0.75 0,0 0,0 0.1,-0.08 0,-0.1 -0.09,-0.11 -0.1,-0.08 0,0 -0.06,0 -0.11,0 -0.08,0 -0.13,0 0,0 0,0 0,0 0,-0.08 0,-0.07 0.11,-0.29 0,-0.17 0,-0.05 0,0 0,0 -0.05,0 -0.12,0 0,0 -0.08,0.06 0,0.06 -0.05,0 0,0 0,0 -0.12,0 -0.06,0 0,0 0,0 0,-0.07 -0.05,-0.23 0,-0.13 0,0 0,0 0,0 -0.11,0 0,0 0,0 0,0 0,-0.07 0,0 0,0 0.07,0 0.11,0 0.12,0 0.05,0 0,0 0,-0.06 0,0 0,0 0,0 -0.32,0 0,0 0,0 -0.09,-0.18 0,-0.11 0,0 0,-0.08 0,0 -0.07,0 -0.08,0 -0.19,-0.09 -0.13,0 -0.17,0 -0.08,0 -0.19,0.05 -1.3,0 -0.28,-0.16 -0.19,-0.12 0,0 0,-0.05 0,-0.06 0,-0.11 0,-0.09 0,0 -0.05,0 -0.09,0 -0.15,-0.07 0,0 0,0 0,-0.1 0,0 0.05,0 0,0 0,0 0,-1.36 0,0 -0.06,-0.06 -0.28,-0.27 -0.05,0 -0.06,0 -0.12,0 -0.05,0 0,0 -0.05,0 0,0 0,0 0,-0.07 0,-0.11 0,-0.06 0,-0.08 0,-0.05 -0.21,-0.17 0,0 0,-0.05 0,0 0,-0.1 0,0 0,-0.06 -0.13,-0.15 0,-0.05 -0.05,-0.09 0,-0.07 0,0 0,0 -0.05,0 0,0 -0.08,-0.07 -0.09,-0.07 -0.07,-0.05 0,0 -0.06,0 -0.08,0 -0.07,0 -0.13,0 -0.24,0 -0.15,0 -0.13,0 -0.06,0 0,0 0,0 0,0 0,-0.13 0,-0.09 0,0 0,-0.05 0,0 -0.06,0 -0.22,0 -0.06,0 0,0 0,0 0,0 0,-0.09 0,0 0,0 -0.12,0 -0.13,-0.07 -0.1,-0.07 -0.11,-0.08 0,0 0,0 0,-0.08 0,-0.21 0,-0.07 0,0 0,0 -1.22,0 -0.31,0 -0.13,0 -0.11,0 -0.06,0 0,0 0,0 0,0 0,0 0,-0.06 0,-0.26 0,-0.06 0,-0.05 0,0 0,0 0,0 0,0 0.05,0 0.19,0 0.1,0 0.05,0 0,0 0,0 0.21,0 0,0 0,0 0.07,-0.07 0,-0.06 0,-0.06 0,-0.06 0,-0.06 0.05,-0.24 0,-0.16 -3.16,-1.13 0.06,-0.15 0.06,-0.14 0.06,-0.12 0.07,-0.12 0.07,-0.11 0.09,-0.12 0.07,-0.09 0.09,-0.11 -0.08,0 -0.07,0 -0.05,0 0,0 -0.12,-0.12 -0.08,-0.1 0,0 0,0 0,0 0,0 -0.13,0 -0.14,0 -0.12,0 -0.25,-0.14 -0.22,-0.14 -0.1,-0.07 0,0 0,0 0,0 0,-0.19 0,-0.11 0,-0.13 0,-0.05 0,-0.06 -0.05,-0.05 -0.05,0 -0.07,-0.05 -0.1,-0.06 0,0 0,-0.05 0,-0.05 0,-0.11 0,-0.06 0,-0.09 0,0 0,-0.05 0,0 0,0 -0.12,-0.1 0,0 0,-0.08 0,-0.06 0,-0.18 0,-0.18 0,-0.09 0,-0.06 0,-0.05 0,0 0,-0.13 0,0 0,0 -0.24,-0.08 -0.09,0 -0.12,-0.05 -0.14,-0.08 -0.13,-0.09 0,0 0,0 0,-0.06 0,0 0,-0.08 0,-0.2 0,0 0,0 0.05,-0.07 0.05,-0.06 0.06,-0.06 0,0 0,0 0,-0.06 0,0 -0.06,-0.1 -0.07,-0.08 -0.07,-0.09 -0.06,-0.07 -0.06,-0.06 -0.05,-0.06 0,0 0,0 -0.33,0 0,0 0,0 -0.1,-0.15 0,-0.06 -0.07,-0.16 0,-0.07 -0.06,-0.11 0,-0.07 0,-0.11 0,-0.07 0,-0.08 -0.11,-0.22 -0.09,-0.19 -0.12,-0.23 -0.08,-0.14 -0.14,-0.24 0,-0.05 0,0 0,0 0,0 0,0 -0.19,0 -0.15,0 0,0 -0.13,0 -0.1,-0.06 0,0 0,0 -0.06,-0.07 -0.14,-0.24 -0.12,-0.19 -0.06,-0.12 0,-0.42 0,-0.08 0,-0.06 0,0 -0.06,-0.08 -0.37,-0.57 -0.16,-0.21 0,0 0,0 0,0 -0.15,-0.08 -0.07,0 -0.06,0 -0.16,0 -0.05,0 -0.13,0 -0.08,0 -0.08,0 -0.17,0 -0.17,0 -0.19,-0.07 -0.16,-0.09 -0.14,-0.18 -0.25,-0.4 -0.35,-0.48 -0.18,-0.18 -0.09,-0.07 -0.17,-0.1 -0.14,-0.07 -0.16,-0.05 -0.87,-0.42 -0.34,-0.17 -0.1,-0.07 0,-0.06 -0.07,-0.09 -3,0 -0.38,0 -2.33,0 0.76,-0.56 0.05,0 0.5,-0.42 1.38,-1.15 0.66,-0.55 1.48,-1.24 -0.09,-0.06 -0.06,0 -0.38,0 0,-0.09 0,-0.07 0.08,-0.07 0,-3.4 0,-0.08 -0.06,-0.08 -0.09,0 -0.27,0 -1.12,0 -0.16,0.07 -0.08,0 -0.17,0 -0.09,0 0,0 0,-0.11 0.07,-0.13 0,-0.12 0,-0.16 0,-0.13 0,-0.26 0,0 0,0 0.14,-0.12 0.07,-0.07 0,0 0.16,-0.42 0.09,-0.21 0,-0.16 0,-0.13 0,-0.09 0,-0.05 -0.06,0 -0.08,0 -0.13,0 -0.25,0 -0.39,0.06 -0.19,0 -0.07,0 -0.06,-0.09 0,-0.27 0,0 -0.07,0 -0.12,-0.09 -0.11,-0.07 -0.09,0 -0.08,0 0,0 0,0 0,0 -0.11,-0.16 0,0 0,0 -0.07,-0.05 0,-0.05 0,0 0,0 0,-0.06 0,-0.11 0,-0.11 0.13,-0.2 0,-0.13 0.07,-0.05 0,0 0,0 0,-0.08 0,-0.05 -0.08,-0.07 -0.12,-0.17 0,0 0,0 0,0 0,-0.15 0,-0.11 0,-0.07 0,0 0,0 0,0 -2.35,-0.05 -0.16,0 0,0.9 -1.64,0 -1.46,0 -2,0 -1.93,0 -1.21,0 -2.47,0 -0.16,0 0,-0.85 -0.27,0 -0.17,0 0,0 -0.05,-0.18 0,0 0,-0.74 0,-0.45 0,-1.12 -0.06,-1.65 0,-0.07 0.63,0 0.32,-0.12 0.09,0 0,0 0.12,0 0.07,0 0.15,0 8.82,0 0,-0.11 0,-0.1 0,-0.28 0,-0.1 0,-0.12 0,-0.09 0,-0.07 0.05,-0.05 0.2,-0.17 0.05,0 0,-0.05 0,0 0,-0.08 -0.05,-0.13 0,-0.17 0,-0.11 -0.07,-0.18 0,-0.05 0,0 0,0 -0.06,0 -0.16,0 -0.16,0 -0.22,0 -0.07,0 -0.07,-0.05 -0.06,-0.06 -0.08,-0.05 -0.09,0 -0.13,0 -0.2,0 -0.2,0 -0.08,0 0,0 0,0 0,0 -0.06,-0.06 -0.06,0 -0.12,0 -0.07,0 -0.16,0 -0.15,0 -0.36,0 -0.21,0 -0.09,0 -0.13,0 -0.15,0 -0.16,0 0,0 -0.1,0 -0.16,0 -0.15,0 -0.26,0 -0.18,0 -0.13,0 -0.11,0 -0.09,0 -0.1,0 -0.13,-0.09 0,0 -0.14,-0.11 -0.06,-0.06 -0.07,-0.08 -0.07,-0.12 0,-0.27 0,-0.05 0,0 0.08,-0.15 0,0 0,-0.06 0,-0.17 0.25,-0.06 0,-4.21 0.62,0 0.24,0 1.59,0 0,-0.4 0,-0.47 0,-0.15 0,-0.42 0,-0.43 1.48,0 0,-4 -0.85,0.06 -1.08,0 -3,-0.05 -0.45,0 -0.57,0 -2.26,0 -0.85,0.13 0,0 -0.39,-0.06 -0.08,0 0,-1.89 0,-1.53 0,-3.13 0,-0.69 0,-0.68 0,0 0,-4.32 -0.44,0 0,-0.8 0,-4.54 0.08,-0.06 0,-2.25 0.09,0 0.52,0 0.44,0 0,-0.08 -0.13,0 -0.06,0"
       transform="translate(-148.49,-252.36)"
       id="path3630"
       style="fill:#51459c;stroke:#010101;stroke-width:1;stroke-linecap:square;stroke-linejoin:bevel;stroke-miterlimit:4;stroke-dasharray:none"
       name="Dallas ISD"
       inkscape:connector-curvature="0" />
    <path
       class="cls-1"
       d="m 300.81,345.86 -0.57,0 -12.5,0 -1.48,0 -0.16,0 0,0.08 -0.08,0.59 -0.09,0.69 -0.1,0.73 0,0.16 0,0.16 -0.27,2.21 -0.06,0.52 -0.06,0.42 -0.22,1.8 -0.16,1.16 0,0.14 0,0.17 -0.06,0.43 -0.05,0.47 0,0.08 0,0.16 0,0.41 -0.07,0.59 0,0 0,0.22 0,0 0,0.3 -0.06,0.61 -0.2,1.55 -0.08,0.69 -0.12,1 -0.07,0.6 -0.07,0.56 0,0.24 0,0.43 0,0.12 -0.05,0.42 -0.06,0.48 -0.08,0.73 -0.05,0.35 -0.07,0.57 -0.09,0.68 -0.09,0.72 0,0.32 -0.07,0.66 -0.12,1 0,0.32 -0.05,0.4 -0.08,0.62 -0.05,0.46 -0.17,1.27 0,0 0,0 0.53,0.46 0.18,0.16 0.09,0.07 0.26,0.2 0.17,0.12 0.55,-0.42 0.07,0 -0.08,-0.14 -0.08,0.06 0,0 0,0 0.22,-0.16 0.1,-0.17 -0.07,-0.07 0.13,-0.15 0.07,0 0.06,-0.06 0.08,-0.06 0.07,-0.07 0,-0.14 0,-0.07 0.12,-0.11 0.09,-0.15 0,0 0.09,0 1,-0.14 0,0 0.37,-0.05 0.34,0 1.42,0 1.47,0 0,0.31 1.3,0 0,1.79 1.3,0 0.08,0.19 0,0.06 0,0 0,0.07 0,0.09 0.15,0 0.32,0 0.06,-0.22 0,-0.07 0.07,-0.07 0.77,-0.65 -0.08,-0.92 -0.06,-0.63 0.8,0 0.22,0 0.31,0 0.19,0.06 0.71,0.23 0.41,0.17 0.31,0.15 0.18,-0.29 0.64,-0.61 0.26,-0.22 0,0 0.41,-0.34 0.66,-0.55 0.41,-0.36 0.15,-0.11 0.32,-0.29 0.13,-0.11 0.39,-0.32 0.55,-0.47 1.3,-1.12 0.3,-0.26 0.46,-0.38 0.69,-0.57 0.1,-0.08 0.15,-0.13 -0.06,-2.39 1.55,0 0.09,-0.12 0,0 0.31,-0.36 0.23,-0.3 0.12,-0.18 0.15,-0.25 0,0 0.23,-0.43 0.06,-0.12 0.11,-0.24 0.07,-0.12 0.5,-0.9 0.08,-0.14 0,-0.06 0.2,-0.37 0.15,-0.28 0.06,-0.12 0,0 0,-0.07 0.08,-0.15 0.58,-1.08 0.06,-0.1 0.21,-0.46 0,0 0.22,-0.58 0.09,-0.3 0.1,-0.31 0.09,-0.29 0.12,-0.32 -0.16,0.06 -0.29,0 0,-0.92 0.67,0 0,-0.08 0,-0.14 0.11,-0.34 0.06,-0.27 0,-0.05 0,-0.05 0.14,-0.73 0.06,-0.45 0.07,-0.54 0,-0.29 0,-0.36 0,-0.47 -0.06,0 0,0 0,-0.06 -0.81,-0.15 -0.65,0 -0.52,0 -1.64,0 -0.77,0 0,-1 0,-0.67 0,-0.58 0,-0.58 0,-1.12 0,-0.75 0,-0.08 -5.19,0"
       id="path3632"
       style="fill:#51459c;stroke:#010101;stroke-width:1;stroke-linecap:square;stroke-linejoin:bevel;stroke-miterlimit:4;stroke-dasharray:none"
       transform="translate(-148.49,-252.36)"
       name="Dallas ISD"
       inkscape:connector-curvature="0" />
    <path
       class="cls-1"
       d="m 462.61,276.05 0,-0.15 -0.33,0 -1.43,0 -0.67,0 -0.18,0 -0.84,0 -1.9,0 -0.9,0 -1,0 -4.1,0 -2.12,0 -0.14,0 -6.31,-0.11 -0.12,0 -3.26,-0.07 -0.87,0 -1.12,0 -6.32,0 -1.13,0 -2.17,0 -1.51,0 -0.91,0 -2,0 -0.82,-0.05 -2.23,0 -3.24,-0.06 -1.33,0 -7.06,0 -0.54,0 -4.22,0 -2.33,0 -1.34,0 -0.47,0 -7.39,0 -2.85,-0.05 -1,0 -4.27,0 -2.32,-0.09 -5.12,-0.2 -0.83,0 -2,0 -0.16,0 0,0.15 0,0.33 0,0 0,1 0,0.08 0,0.07 0,0.59 0,1.23 0,0.41 0,2 -0.13,0 -0.29,0 -0.33,0 -0.31,0 -0.12,0 -0.11,0 -0.15,0 -0.24,0.08 -0.06,0 -0.05,0 -0.15,0.08 -0.56,0.27 -0.3,0.14 -0.13,0.1 -0.15,0.08 0,0.07 0,0.07 0,1.42 0,0.5 0,0.48 0,0.5 0,0.47 0,0.23 0,0.28 0,0.3 0,0.68 0,0.87 0,1.71 -2.13,0 0,0 0,0 -1.25,0.09 0,0.4 -1.67,0 -2,0 -0.53,0 0,0 0,7.89 0,0.5 0,0.14 0,0.3 0,0.37 0,0.61 0,1.66 0,0 0,1.76 0,0.22 0,3.39 0,0.43 0,0.09 0,0.15 -0.1,0 0,0.06 0,0.06 -0.05,0.16 0,0.19 0,4 -7.31,0 -2.62,0 -0.29,0 0,2.26 0,0.48 0,0.65 0,1 0,0 0,1.23 0,1 0,0.53 0,0.48 0,1.18 0,4.63 0.1,0 1.48,-0.47 3.42,-1 0.18,-0.06 0.07,0 0.15,-0.05 0.5,-0.17 -0.22,0.1 -0.08,0 -0.09,0.07 0,0.06 0,0.07 0,0.08 0,0.23 0,0.33 0,0.44 0,1.06 0,2 0,1.5 0,1.75 0,1 0,6.69 4.24,0 0.3,0 0.28,0 2.42,0 1.17,0 1,0 5.35,0 0.46,0 0.06,0 0,4.41 0,0 0,3.1 0,0.18 0,5.56 5.31,0 0.18,-0.06 2.92,0.06 0.81,0 0.26,0 0.91,0.1 0,0.13 -0.08,0.06 -0.16,0.14 -0.08,0.07 -0.18,0.15 -0.16,0.13 -0.11,0.09 0.08,0.06 1,0.78 0.16,0 0.34,-0.09 5.61,4.85 0,0.27 0,-0.99 0.29,0.29 0.17,0.27 0.25,0.27 0.13,0.24 -0.08,0.07 0,0 0,0 -0.14,0.13 -0.16,-0.13 -0.25,-0.24 -0.2,-0.17 -0.19,-0.14 -0.22,-0.18 -0.18,-0.15 -0.27,-0.14 -0.25,-0.09 -0.31,-0.07 -0.27,-0.05 -0.38,-0.08 -0.29,-0.13 -0.72,-0.37 -0.77,-0.62 -0.28,-0.23 -1.77,-1.38 -0.5,-0.42 -0.56,1.3 0,0.07 -0.28,0.46 -0.13,0.21 -0.1,0.17 -0.54,0.87 -0.38,0.49 -0.32,0.31 -0.31,0.27 -0.26,0.15 -0.15,0.12 0,0 -0.38,0.36 0.26,0.22 0.21,0.18 0.15,0.12 0.46,0.39 0.24,0.2 0.09,0.08 0.26,0.23 0.21,0.17 0.39,0.33 0.3,0.25 0.28,0.25 0.18,0.15 0.12,0.11 0.13,0.12 0.17,0.14 0.4,0.34 0.24,0.19 0.06,0 0.19,-0.08 0.07,0 0.2,-0.06 0.12,0 0.1,0 0.23,0 0.14,0 0.19,-0.06 0.26,-0.11 0.91,-0.37 0.38,-0.17 0.3,-0.12 0.15,0 0.19,0 0.1,0 0.36,0 0.07,0 0.11,0 0.14,0 0.09,0 0.14,-0.07 0.13,-0.09 0.52,-0.42 0.34,-0.3 0.34,-0.3 0.23,-0.19 0.07,-0.06 0.24,-0.2 0.63,-0.53 0.07,-0.05 0.17,-0.12 0.07,-0.06 0.09,-0.08 0.21,-0.17 0.11,-0.09 0.23,-0.19 0.27,-0.23 0.06,-0.06 0,0 0,0 0.42,-0.36 0.27,-0.23 0.31,-0.26 0.33,-0.26 0.6,-0.52 0.08,-0.07 1,-0.84 0.11,-0.1 0.06,0 0,0 0.06,-0.05 0.05,0 0.11,-0.08 0.12,-0.08 0.06,-0.06 0.61,-0.5 0.91,-1.34 0.29,-0.24 0.42,0.37 0.13,0.12 0.57,0.47 0.21,0.18 0.14,-0.34 0.53,-0.31 0.22,-0.18 0.73,-0.59 0.38,-0.3 0.62,-0.5 0.21,0.25 0.09,0.07 0,0 0.07,0.06 2,1.74 0.06,0 0.57,0.47 2,1.64 0.71,0.63 1.29,1.12 0.46,0.37 0.48,0.22 1.1,1.16 0,0 0.12,0.07 0,0.05 -0.15,0.15 0,0 0,0 0,0 0,0 0.12,0.09 0,0 0,0 0.05,0.07 0,0 0,0.11 0,0.1 0,0 0,0.05 0,0 0,0 -0.1,0.06 -0.1,0 -0.06,0 -0.14,0 0,0 -0.12,-0.29 -0.1,0 0,0.33 0,0 -0.07,0.06 0,0 0,0 0,0 0,0.07 0.46,0 0.15,0.28 -0.13,0.08 0.08,0.17 0,0.08 0.05,0.12 0,0 0,0 0,0 0,0 0.05,0 0.07,0.07 0.09,0.14 0,0 0,0 0.05,0 0.13,0 0,0 0,0 0,0.08 -0.05,0.12 0,0.06 0,0 0,0 0.05,0 0.06,0 0.07,0 0.07,0 0,0 0.06,0 0.12,0 0,0 0,0 0,0 0,-0.07 0.05,-0.06 0,0 0.07,0 0.14,0 0,0 0,0 0.06,0.09 0,0 0,0 0,0.24 0,0 0,0 0.08,0 0.27,0.08 0,0 0,0 0,0.05 0,0.14 0,0 0,0 0.09,0 0.12,0 0.15,0 0,0 0,0 0,0 0,0 0.1,0 0.06,0 0.1,0 0.32,0 0,0 0,0 0,0 0,0.07 0,0 -0.05,0.06 -0.06,0.06 0,0 0,0.1 0,0 0,0 0.1,0 0.12,0 0.48,0.22 0.08,0 0.25,0 0.19,0 1.17,0 0.25,0 0.54,-0.06 0.3,0 0.26,0 0.17,0 0.06,0 0.13,0 0.14,0 0.07,0 0,0 0,0.2 0,0 0,0 0.34,0 0.07,0 0.16,0 0.17,0 0,0 0,0 0.12,0 0,0 0,0 0.22,0 0,0 0.08,0.17 0,0.06 0,0 0,0 0.06,0 0.15,0 0.06,0 0.11,0 0.07,0 0.07,0 0.12,0 0.08,-0.06 0,0 0,0 0.06,0.24 0,0 0.11,0 0,0 0.09,0 0.06,0 0,0 0,0.19 0,0 0,0 0.2,0 0,0 0,0 0,0 0,0 0,-0.16 0,0 0,0 0.68,0 0.06,0 0.09,0 0.14,0 0.1,0 0.06,0 0,0 0,-0.08 0,-0.07 0,-0.08 0,0 0,0 0.09,0 0.16,0.1 0.27,0.08 0,0 0,0 0.1,0.2 0,0.06 0.06,0.06 0.11,0 0.11,-0.13 0.08,0 0,0 0.08,0.08 0,0.06 0.07,0 0.1,-0.06 0,0 0.32,0 0.05,0 0.08,0 0.37,0 0.07,0 0.12,-0.05 0.06,0 0,0 0,-0.07 0,-0.31 0,-0.05 0,-0.06 0.08,-0.07 0.06,0 0.06,0 0.13,0 0.16,0 0.06,0 0,0 0,0.23 0,0 0.11,0 0.08,0 0.06,0 0.14,-0.11 0.05,0 0.26,0 0,0 0,0 0,0 0,0 0.08,0 0.1,0 0.05,0 0,0 0,-0.07 0,-0.23 0.16,0 0.08,0 0.07,0 0.46,0 0.06,0 0,0 0.31,0.32 0.06,0.07 0.07,0.05 0.06,0 0.21,0 0,0 0,0 0.08,-0.16 0,0 0,0 0.1,0 0,0 0,0 0,0 0,0 0.09,0.22 0,0 0,0 0,0 0.25,0 0.08,0 0.1,0 0.08,0 0,-0.06 0.06,-0.08 0,0 0.06,0 0.19,0 0.14,0 0.12,0 0.14,0 0.13,0 0.61,0 0,0 0.06,0.08 0.08,0 0,0 0.12,-0.16 0.06,-0.06 0.07,0 0.12,0 0.07,0 0.06,0 0,0.06 0,0.06 0,0.07 0,0 0,0.05 0,0 0.06,0 0.06,0 0.21,0 0.12,0 0.38,0 0.24,0 0.12,0 0,0 0,0 0,0.06 0,1.96 0,0.1 0,0.05 0,0.21 0,0.13 0,0.05 0,0 0.08,0.06 0.11,0.06 0.05,0 0.32,0 0.06,0 0.06,0 0.12,0.12 0.34,0.44 0.1,0.16 0,0 0.07,0 0.07,0 0,0 0,0 0.07,0.07 0.13,-0.08 0.16,0 0.26,-0.08 0.3,-0.08 0.08,0 0.09,-0.06 0.33,-0.06 0.15,-0.16 0.1,-0.08 0.17,-0.15 0.35,-0.33 0.15,-0.16 0.39,-0.34 0.48,-0.48 0.29,-0.3 0,0 0.18,-0.17 0,0 0.42,0 3,0 2.56,0 4.24,0 0.17,0 10.71,0 4,0 0.1,-10.88 0,-3 0.05,-6 0,-0.32 0,-0.8 0,-1.92 0,-1 0,-0.65 0,-0.68 0,0 0,-0.2 0,-0.08 0,0 0,-0.15 0,-0.06 0,-0.16 0,-3.1 0,0 0,0 0,0 0,-3.02 0,0 0,-0.56 0,0 0,-1.38 0,-0.3 0,-0.05 0,-0.09 0,-0.26 0,-0.41 0,-0.85 0,0 0,-1 0,-0.84 0,-1.84 0.06,-0.38 0,-0.1 0,-8 0,0 0,-0.06 0,-0.43 0,-0.81 0,0 0,-0.6 0,-0.78 0,-3.4 0,-0.73 0,-0.75 0,-1 0,0 0.06,-0.25 0.06,-0.24 0,-7.14 0,-1.81 0,-2.78 0,-0.94 0,-0.63 0,-4.56 0,0 0,-2.48 0,-0.51 0,-0.09 0,-1.56 0,-0.12 0,0 0,-0.4 0,-1.64 0,0 0,-0.3 0,-1.37 0,-5.36"
       transform="translate(-148.49,-252.36)"
       id="path3634"
       style="fill:#51459c;stroke:#010101;stroke-width:1;stroke-linecap:square;stroke-linejoin:bevel;stroke-miterlimit:4;stroke-dasharray:none"
       name="Garland ISD"
       inkscape:connector-curvature="0" />
    <path
       class="cls-1"
       d="m 165.17,323.24 0,-0.92 -5.43,-0.09 -3.88,-0.06 0,0.55 -2.55,-0.06 0,1 0,4.51 0,4.79 0,7.04 0,1.22 -0.09,4.18 -0.22,2.5 0,0.1 -0.07,5.45 0,0.09 -0.11,8.69 0,0.06 0,0.28 0,0.12 0,0 0,0.31 0,0.26 0,0.08 0,0 0,1.28 0.33,0.26 0.23,0.19 0.19,0.15 0.17,0.1 0.18,0.08 0.21,0.06 0.8,0.14 0.22,0 0.22,0 0.73,0 0.22,0 0.39,0.06 0.29,0.1 0.24,0.08 0.19,0.09 0.16,0.09 0.24,0.16 0.19,0.18 0.24,0.24 0.05,0.08 0,0.47 0,0.2 0.3,0.81 0.14,0.31 0.15,0.26 0.13,0.26 0.2,0.27 0.08,0.15 0,0.14 0.09,0.56 0.49,0.6 0.05,0.05 1.11,1.33 0.09,0.05 0.91,0.43 0.52,0.25 0.77,0.42 0.47,0.22 0.07,0.05 0.45,0.24 0.09,0.08 0.05,0.06 0,0.06 0,0.07 0,0.39 0,0.25 0,0.55 0,0.14 0,0.25 0,0.35 0,0.11 0.06,0.22 0,0.13 0,0.24 0,0.48 0,0.22 0,0.73 0,0.22 0,0.28 0.06,0.38 0.13,0.5 0,0.1 0.06,0.14 0.32,0.51 0.71,0.83 0.63,0.79 0.19,0.22 0.27,0.28 0.07,0.07 0.21,-0.07 0.21,-0.06 0.42,-0.13 0.29,-0.1 0.28,0 3,0 0.56,0 0.3,0 0.34,0.06 0.45,0.08 0.18,0 0.69,-0.06 0.25,0 0.45,0 0.85,-0.1 0.09,0 0,0 0.61,0 0,4.54 0,1.07 0,2.14 -0.08,2.6 0,1.44 0,0.17 0.08,0 6.5,0.06 0,-1.3 0.07,0 0.09,0 0.06,0 0.06,0 0,0 0,0 0,0 0,0 -0.06,0 -0.13,0 0,0 0,0.06 0,0 0.07,0 0.07,0 0.29,0 0.09,0 0.06,0 0,0 0,0 0,0.15 0.06,0.14 0.08,0.12 0.06,0.06 0.08,0.07 0.11,0.06 0.24,0 0,0 0.07,-0.06 0.06,-0.05 0.11,0 0,0 0,0 0,0 0,0 0.06,0 0.06,0 0.11,-0.06 0.09,0 0.49,0 0.08,0.11 0,0.07 -0.08,0 -0.09,0 -0.06,0.06 0,0.08 0,0.06 0,0.07 0,0 0,0 0.09,0 0.06,0 0.06,0 0.09,0 0,0 0.09,0 0.05,0 0.07,0 0.07,-0.06 0.07,0 0.1,0.08 0.07,0.05 0.08,0.06 0,0 0,0 -0.06,0.07 0,0.07 0,0 0.07,0 0.16,0 0,0 0,-0.12 0,0 0,0 0.06,0 0.07,0 0.05,0 0.13,0 0.06,0 0,0.06 0,0 0,0.06 0,0 0,0 -0.16,0 0,0 0,0 0,0 0,0 0.06,0 0.26,0 0,0.37 0,1.86 0.1,0.08 0,0.9 0,0.14 0,0 -0.06,0 0,0.1 0,4.63 0,1.78 0,4 0.76,-0.16 0.68,-0.28 0.54,-0.26 0.79,-0.41 0.34,-0.24 0.21,-0.21 0.22,-0.24 0.2,-0.32 0.14,-0.19 0.05,-0.15 0,-0.22 -0.09,-0.21 -0.2,-0.55 0,-0.13 0,-0.18 0,-0.16 0,-0.08 0.13,-0.08 0.13,0 0.26,-0.13 0.18,-0.18 0.27,-0.28 0.13,-0.24 0.14,-0.39 0,-0.36 0,-0.43 0.07,-0.21 0,-0.09 0.1,-0.08 0.13,0 0.36,-0.06 0.51,0 0.16,0 0.16,-0.08 0.42,-0.2 0.37,-0.18 0.17,0 0.43,0 0.43,0.11 0.23,0.1 0.22,0.2 0.12,0.14 0.11,0.18 0.09,0.09 0.18,0.11 0.29,0.1 0.16,0 0.18,-0.08 0.13,-0.13 0.06,-0.18 0,-0.71 0,-0.42 0,-0.12 0.07,-0.06 0.09,0 0.3,0 0.18,0 0.09,0 0.14,0 0,0 0.14,0.06 0.06,0.08 0,0.25 0,0.14 0,0 0,0.14 0.09,0.08 0.14,0 0.22,0 0.21,0 0.11,0 0.17,-0.11 0.1,-0.1 0.29,-0.36 0.07,-0.17 0,-0.14 -0.08,-0.16 -0.12,-0.16 -0.12,-0.11 -0.07,-0.12 0,-0.15 0.06,-0.23 0.06,-0.12 0.07,-0.13 0.09,-0.18 0.07,-0.09 0.08,-0.08 0.06,-0.1 0,-0.08 0,-0.06 0,-0.09 0,-0.07 0,-0.09 0.1,-0.16 0.19,-0.21 0.1,-0.08 0.2,-0.26 0.14,-0.17 0.11,-0.1 0.14,-0.08 0.18,-0.06 0.2,-0.06 0.16,-0.06 0.18,0 0.47,0 0.28,0 0.15,-0.06 0.17,-0.06 0.1,0 0.13,0 0.34,0.17 0.05,0.13 0,0.12 0,0.08 0,0.07 -0.52,0.44 -0.31,0.16 -0.29,0.06 -0.23,0.07 -0.23,0.13 -0.15,0.19 -0.07,0.2 0,0.21 0,0.17 0.09,0.2 0.09,0.19 0.16,0.11 0.16,0.06 0.29,0 0.29,-0.06 0.23,-0.08 0.25,-0.11 0.11,-0.12 0.05,0 0.06,0 0.17,0 0.5,0.06 0.33,0 0.61,0.9 0.24,-0.14 0.19,-0.24 0.13,-0.23 0.16,-0.21 0.26,-0.18 0.18,-0.06 0.19,0 0.3,0 0.54,0.14 0.19,0.06 0.31,0 0.25,-0.05 0.26,-0.07 0.08,-0.05 0.1,-0.07 0.23,-0.19 0.14,-0.13 0.5,0.09 0.21,0 0.2,0.07 0.33,0.23 0.09,0.13 0,0 0.13,0.21 0.06,0.33 0,1 0.05,0.09 0,0 0.35,0 0.77,-0.06 0.18,0 0,0 0.06,0 0.06,0.07 0,0.11 0,0 0,0.08 0,0.13 -0.06,0.09 -0.12,0.14 0,0 -0.34,0.28 -0.11,0.12 -0.07,0.16 0,0.18 0,0.18 0.09,0.22 0.23,0.45 0.09,0.1 0.13,0 0.38,0.14 0.07,0.06 0,0.18 -0.08,0.31 0,0.15 0,0.14 0.39,0.17 1.18,0.24 0.42,0 0.18,0 0.26,0.22 0.5,0.13 0.08,0.42 0.1,0.53 0,0.12 0,0.12 0.3,1.45 0.53,0.34 0.32,-0.34 0,-0.39 0.19,-0.26 0.36,-0.08 0.12,-0.27 0.16,-0.1 0,0 -0.06,-0.12 0,-0.13 0.19,-0.18 0.13,-0.23 0.05,-0.09 0,0 0,-0.05 0,0 0,-0.09 0,-0.12 0,-0.13 0,-0.11 0,-0.12 0,0 0,0 -0.1,-0.06 0,0 0,0 0,0 0,0 0,-0.07 0,0 0,0 0,0 0.36,-0.17 0,0 0.06,0 0.07,-0.06 0,-0.06 0.12,-0.19 0,-0.06 0,-0.22 0.19,-0.11 0.24,-0.11 0.22,-0.07 0.07,0 0.2,-0.11 0.12,-0.06 0.24,-0.22 0.19,-0.15 0.07,-0.1 0,-0.1 -0.19,-0.16 -0.1,-1.11 0.17,-0.29 0.06,0 0.13,-0.08 0.23,-0.15 0.29,-0.12 0,0 0.27,0 0.32,0.05 0.15,0.06 0.16,0.06 0.14,0.05 0.13,0.12 0.06,0.1 0.09,0.09 0,0.35 -0.06,0.18 -0.14,0.12 -0.25,0.25 -0.06,0.06 -0.22,0.24 -0.26,0.27 -0.13,0.24 0,0.25 0,0.13 0,0.13 0.09,0.13 0.06,0.11 0.14,0.13 0.16,0.1 0.18,0.11 0.05,0 0.33,0.14 0.38,0.14 0.42,0.12 0.57,0.15 0.49,0.06 0.48,0 0.35,0 0,-0.65 -0.08,-0.15 0,-0.2 -0.08,-0.73 0,-0.24 0.12,-0.47 0.22,0 0.15,0 0,0 0.13,-0.05 0.08,0 0.14,0 0.08,-0.06 0.08,-0.12 0,-0.09 0.05,-0.1 0,-0.11 0,-0.09 0,-0.16 0,-0.06 0,-0.15 0.11,-0.14 0,0 0.1,-0.07 0.16,-0.15 0.12,-0.12 0,0 0.07,0 0,0 0,0 0,0 0.07,-0.2 0,-0.09 0,-0.2 0,0 0,-0.05 -0.08,-0.15 -0.22,-0.38 0,0 0,-0.21 0,-0.16 0,-0.15 0,-0.05 0,0 0.07,-0.11 0.14,-0.18 0.06,-0.09 0.08,-0.13 0,0 0,-0.06 0,-0.12 0,-0.13 0,-0.12 0,-0.1 0,0 0,0 -0.09,0 0,-0.06 -0.21,-0.11 0,0 0,0 0,0 -0.14,0 -0.29,0 -0.13,0 -0.69,-0.18 -0.43,-0.13 0,0 0,-0.14 -0.13,-0.45 -0.14,-0.52 0,-0.18 0,0 0,0 -0.05,0 0,0 -0.07,0 -0.25,0.06 -0.18,0 -0.39,0.13 -0.15,0 0,0 0,0 -0.12,-0.1 -0.11,-0.15 -0.06,-0.1 0,-0.29 0.12,0 -0.07,-0.23 0,-0.29 0,-0.12 0,-0.07 0,0 0,0 0,0 0,0 0.15,-0.06 0.15,0 0.18,0 0.17,0 0.29,0 0.21,0 0,0 0,0 0.08,-0.06 0.16,0.09 0.39,0.2 0.17,0.08 0.1,0 0.16,0 0.91,0 0.16,0 0.14,0 0.09,0 0.12,0 0.06,0 0.1,-0.07 0.17,-0.11 0.2,-0.15 0.18,-0.16 0.2,-0.23 0.23,-0.45 0.23,-0.36 0.16,-0.28 0.17,-0.36 0.12,-0.33 0.14,-0.46 0.05,-0.13 0,-0.14 0,-0.46 0.74,0 0.5,-0.06 -0.16,0.3 -0.14,0.24 0.3,-0.18 0.88,-0.59 0.1,-0.14 0.26,-0.13 0.16,0 0.14,0 0,0 0,0 0.09,0.09 0.28,0.34 0.07,0.08 0.07,0 0.13,0 0.08,0 0.26,0 0.18,0 0.21,0 0.2,-0.07 0.09,-0.06 0.05,-0.06 0,0 0,0 0,-0.08 0,-0.16 0,-0.05 -0.07,-0.08 0,0 -0.07,-0.06 -0.14,-0.11 -0.09,-0.06 -0.07,-0.07 -0.24,-0.27 -0.1,-0.08 -0.07,0 -0.08,0 -0.15,0 0.07,0 -0.16,0 -0.06,0 0,0 -0.07,-0.08 0,-0.08 0,-0.11 0,-0.09 0.06,-0.07 0.05,-0.05 0,0 0.22,-0.12 0.31,-0.13 0.32,-0.09 0.18,0 0.42,0 0.12,0.07 0.16,0.3 0.07,0.06 0.06,0 0.12,0 0.32,0 0.35,0 0.32,0 0.11,0 0.54,0.13 0.11,0 0.09,0 0.09,-0.07 0.14,-0.13 0.34,-0.39 0,0 0.07,0 0.2,0 0.06,0 0.2,0.1 0.87,0.84 0.24,0.16 0.12,0.06 0.15,0 0.17,0 0.32,-0.05 0.63,-0.15 0.22,0 0.23,0.08 0.09,0 0.07,0.08 0.08,0.1 0,0 0,0.06 0,0.1 0,0.32 0,0.09 -0.06,0.09 -0.16,0.22 -0.1,0.14 0,0.05 -0.08,0.07 -0.21,0.14 -0.14,0.07 -0.06,0 0,0 0,0 0,0.07 0,0.11 0,0.07 0,0 0.07,0 0.07,0 0.15,0 0.23,-0.06 0.35,-0.13 0,0 0.09,0 0,0 0.15,-0.06 0.07,0 0,0 0,0 0,0 0.11,0 0.05,0 0,0 0.08,0 0.18,0 0.3,0 0.42,0 0.09,0 0.07,0 0.07,0 0.09,0 0.57,-0.28 0.21,-0.11 0.08,0 0.07,0 0.21,0 0.07,0 0,0 0,0 0,0 0.12,0.14 0,0 0,0 0.1,0 0.51,-0.08 0.29,0 0.07,0 0.17,0.05 0.15,0.07 0,0 0,0 0.09,0.11 0.06,0.08 0.15,0.21 0.15,0.16 0.07,-0.31 0,-3.34 -0.13,-0.47 0,-0.12 -0.29,-2.3 -0.21,-1.68 -0.1,-0.72 0,-0.17 0,-0.2 0,-0.72 0,-2.4 -0.27,0 0,-3.42 -0.34,0 -1.19,0 -0.37,0 -1.33,-0.06 -2.24,-0.09 -2,0 -2,-0.07 -0.36,0 -0.26,0 -1.42,0 -0.42,0 -1.2,0 0.07,-0.48 0.06,-0.36 0.06,-0.14 0,-0.05 0,-0.11 0.16,-0.25 0.11,-0.16 0.05,-0.07 0.31,-0.35 0.22,-0.2 0.54,-0.53 0,-0.49 0.33,-0.32 0.55,-0.39 0.47,-0.41 0.88,-0.71 0.34,-0.3 0.68,-0.75 0.44,-0.41 2.9,-2.8 0.66,-0.69 0.08,-0.08 0.11,-0.27 0.08,0 0,-0.09 0.19,-0.53 0,-0.06 0.11,-0.28 0,-0.25 0.18,-0.64 0,-0.22 -0.25,-0.42 -0.07,-0.32 0,-0.34 0.09,-0.27 0.07,-0.19 0,-0.26 0,-0.7 0,0 0,-1.54 0,-0.3 0,-0.35 0,0 0,-0.9 0,-0.07 0,-0.15 0,-0.27 0,-0.17 0.09,-0.19 0.11,-0.13 0.13,-0.24 0.13,-0.28 0.11,-0.29 0,-0.16 -0.09,-0.06 -0.08,0 -0.18,0.16 -0.25,0.19 -0.35,0.15 -0.35,0 -0.36,-0.06 -0.31,-0.09 -0.24,-0.15 -0.3,-0.18 0.07,-0.05 0.21,-0.15 -0.07,-0.08 -0.18,-0.14 -0.07,-0.07 -0.05,-0.09 0,-0.05 0,-0.1 0,-0.25 0.1,-0.29 0,-0.11 0,-0.06 0,-0.07 -0.06,-0.11 0,-0.06 -0.07,-0.08 -0.21,-0.19 -0.06,0 -0.06,0 -0.1,0 -0.12,0 -0.16,0 -0.09,0 -0.34,0.14 -0.16,0.06 -0.22,0.06 -0.51,0.08 -0.15,0 -0.23,0 0.28,0 -0.06,0 0,0 -0.08,0 0,0 -0.07,-0.06 0,-0.09 0,-0.12 0.06,-0.08 0.46,-0.44 0,0 0,0 0,-0.24 0,-0.1 0,-0.06 -0.06,-0.11 0,-0.05 -0.09,-0.09 -0.12,-0.1 -0.18,-0.11 -0.13,-0.05 -0.16,0 -0.29,0 -0.12,0 -0.09,0 -0.06,0 0,0 0,0.06 0,0.06 -0.12,0.24 -0.13,0.18 -0.09,0.09 -0.05,0 -0.06,0 -0.16,0 -0.21,0 -0.46,-0.13 -0.06,0 -0.13,-0.06 -0.07,0 -0.12,-0.1 0,0 -0.07,-0.08 0,-0.07 0,0 0,-0.36 0,-0.12 0,-0.05 0,0 0,0 -0.06,0 -0.21,0 -0.09,0 -0.16,0.05 -0.28,0.07 -0.22,0 -0.22,0 -0.13,0 -0.08,0 -0.18,-0.07 -0.07,0 0,0 0,0 -0.07,-0.06 -0.07,-0.07 -0.06,-0.08 -0.07,-0.15 0,-0.09 -0.06,-0.23 0,-0.08 -0.06,-0.08 -0.08,-0.07 -0.05,0 0,0 -0.1,-0.05 -0.15,-0.07 -0.06,0 -0.2,0 -0.09,0 -0.07,0 -0.1,0 -0.1,0 -0.08,0 -0.34,0.17 -0.2,0.09 -0.09,0 -0.09,0 -0.16,0 -0.1,0 -0.15,-0.05 -0.12,-0.05 -0.1,-0.06 -0.06,-0.06 -0.06,-0.06 0,-0.06 -0.07,-0.15 0,-0.06 -0.09,-0.37 -0.07,-0.38 0,-0.1 0,-0.08 -0.06,-0.08 0,-0.05 -0.05,0 -0.05,0 -0.07,0 -1.18,0 -0.12,0 -0.08,0 0,0 0,0.06 0,0.05 0,0.06 0,0.12 0,0.23 0,0.13 0,0.14 0,0 0,0 0,0 0,0 -0.07,0 -0.28,0.14 0,0 -0.09,0 -0.08,0 -0.27,0 -0.23,0 -0.15,0 -0.19,0 -0.05,0 -0.06,0 -0.07,-0.07 0,-0.06 0,0 0,-0.14 0.05,-0.53 0,-0.12 0,-0.13 0,-0.11 0,-0.08 0,0 0,0 0,0 -0.05,0 -0.18,0 -0.06,0 0,0 0,0 -0.3,0.32 -0.1,0.09 -0.1,0.07 -0.1,0 -0.11,0 -0.12,0 -0.22,0 -0.14,0 -0.38,-0.06 -0.42,-0.08 -0.29,-0.05 -0.18,0 -0.89,-0.21 -0.3,0 -0.09,0 -0.28,-0.06 -0.3,-0.1 -0.11,0 0,0 -0.06,0 0,0 0,0 0,0 0,-0.06 0,-0.17 0,-0.09 0.08,-0.09 0.05,0 0.08,-0.06 0.07,0 0.12,-0.06 0.1,0 1.16,-0.43 0,0 0,0 0,0 0,-0.07 0,-0.07 0,-0.09 0,-0.09 0,-0.14 0,-0.08 0,-0.08 0,-0.07 0,-0.06 -0.05,-0.05 -0.1,-0.07 -0.12,-0.08 -0.12,-0.06 -0.12,0 -0.12,0 -0.7,-0.06 -0.06,0 -0.06,0 -0.08,0 -0.08,-0.05 -0.05,-0.06 -0.1,-0.13 0,0 0,0 0,-0.1 0,-0.08 0.1,-0.17 0.46,-0.66 0,-0.06 0,-0.09 0,-0.06 0,-0.1 0,-0.06 0,0 0,0 0,0 -0.27,0 -0.09,0 -0.12,0.06 -0.13,0.05 -0.1,0 -0.18,0.06 -0.1,0 -0.17,0 -0.05,0 0,0 0,0 -0.09,-0.09 -0.07,-0.08 0,0 0,0 0,-0.05 0,-0.12 0,-0.17 0,-0.12 0,-0.11 0,-0.07 0,-0.07 0.12,-0.11 0.23,-0.15 0.21,-0.12 0.18,-0.09 0.21,-0.1 0.18,-0.07 0,-1.56 0,-0.1 -0.15,0 0,0 -0.05,0 -0.09,0.06 -0.14,0.11 -0.14,0.13 -0.32,0.36 0,0 -0.09,0.08 -0.09,0.06 -0.06,0 -0.05,0 -0.28,0 -0.28,0 -0.19,0 -0.3,-0.09 -0.09,0 -0.21,-0.1 -0.13,-0.06 -0.13,-0.08 -0.23,-0.11 -0.16,-0.06 -0.07,0 -0.13,-0.06 -0.18,-0.09 0,0 -0.07,-0.07 -0.06,-0.07 -0.06,-0.09 -0.05,-0.1 0,-0.05 0,-0.08 0,-0.09 0,-1.38 0,-0.08 0.05,-0.23 0.06,-0.2 0,-0.15 0,-0.11 0.12,-0.25 0.17,-0.23 0.18,-0.24 0.29,-0.36 0.13,-0.24 0.07,-0.11 0,-0.07 0,-0.08 0,-0.08 0.09,-0.55 0,-0.35 0,-0.52 -0.08,-0.37 0,-0.38 0,-0.31 0.12,-0.22 0.07,-0.1 0,-0.1 0,-0.06 0.06,-0.06 0,-0.07 0.11,0 0.05,0 0.06,0 0.11,-0.1 0.12,-0.15 0,-0.07 0.07,-0.16 0,-0.11 0,-0.14 0,-0.15 0,-0.07 0,-0.06 -0.06,-0.08 -0.08,-0.08 -0.07,-0.05 0,0 0,0 0,0 -0.24,0 -0.08,0 -0.31,0.1 -0.07,0 -0.1,0 -0.1,0 -0.29,0 -0.2,0 -0.12,0 -0.14,0.08 0,0 0,-0.07 -0.07,-0.11 -0.11,-0.14 -0.06,-0.12 -0.06,-0.13 -0.06,-0.17 0,-0.23 0,-0.17 0,-0.08 0.13,-0.26 0.13,-0.16 0.13,-0.12 0.13,-0.09 0.1,-0.07 0.14,-0.11 0,0 0.21,-0.16 0.07,-0.07 0.08,-0.11 0,0 0,0 0,-0.46 0,-0.06 0,-0.07 0,0 -0.35,-0.65 -0.13,-0.3 -0.06,-0.14 0,-0.1 0,-0.09 0,-0.11 0,-0.06 0.06,-0.09 0,0 0.11,-0.07 0.08,0 0.08,0 0.11,0 0.27,0 0.86,0 0.08,0 0.06,0 0.07,0 0,0 0.1,0 0.08,-0.06 0.07,-0.06 0.14,-0.19 0,-0.06 0,-0.11 0.06,-0.2 0,-0.18 0,-0.15 0,-0.12 0,-0.11 0,-0.08 -0.06,-0.1 -0.2,-0.26 -0.3,-0.37 0,0 0,-0.07 0,-0.07 0,-0.09 0,-0.06 0,-0.3 -0.09,0 -0.67,0 -3.07,0 0,0.1 0,2 0,0.46 0,1.1 0,3.34 0,1.31 0,0.4 -1.83,0 -2.36,0 -1.81,0 -2.69,0 -0.12,0 -0.6,0 -1.2,0 -1.38,0 -2.01,0 0,0.13 0,0 0,0.11 0,0.77 0,0.9 0,0.15 -0.06,2.63 0,0.7 0.13,0.9 0,0.2 0,0.34 0,0.14 0,0.07 0,0.07 0,0.15 -1.07,0 -0.81,0 -0.35,0 -0.08,0 -3.76,0 -3.1,0 -0.24,0 -1.06,0 -3.84,0 -0.05,0 -0.28,0 -0.76,0 -0.05,0 0,0 -0.09,0 -1.47,-0.09 -1.64,0 0,-10 1.51,0 0,-0.6 0,-1.18 0,-0.33 -6.93,0 -2.66,0 0,-0.77 -0.06,-4.13 0,-0.1 0,-1.06 -0.09,-0.08 -1,0 -6,0 0,-2.53"
       transform="translate(-148.49,-252.36)"
       id="path3636"
       style="fill:#51459c;stroke:#010101;stroke-width:1;stroke-linecap:square;stroke-linejoin:bevel;stroke-miterlimit:4;stroke-dasharray:none"
       name="Irving ISD"
       inkscape:connector-curvature="0" />
    <path
       class="cls-1"
       d="m 220.43,407.18 0.53,-0.25 0,-0.24 0.25,-0.06 0.34,-0.08 0,0 -0.09,-0.15 0,0 -0.1,-0.17 0.46,-0.23 0.2,-0.1 0.12,-0.18 0.07,-0.1 0.14,-0.22 0.22,-0.34 0.06,-0.09 -0.49,-0.06 -0.57,-0.15 -0.42,-0.12 -0.38,-0.14 -0.33,-0.14 -0.05,0 -0.18,-0.11 -0.16,-0.1 -0.14,-0.13 -0.06,-0.11 -0.09,-0.13 0,-0.13 0,-0.13 0,-0.25 0.13,-0.24 0.26,-0.27 0.22,-0.24 0.06,-0.06 0.25,-0.25 0.14,-0.12 0.06,-0.18 0,-0.35 -0.09,-0.09 -0.06,-0.1 -0.13,-0.12 -0.14,-0.05 -0.16,-0.06 -0.15,-0.06 -0.32,-0.05 -0.27,0 0,0 -0.29,0.12 -0.23,0.15 -0.13,0.08 -0.06,0 -0.17,0.29 0.1,1.11 0.19,0.16 0,0.1 -0.07,0.1 -0.19,0.15 -0.24,0.22 -0.12,0.06 -0.2,0.11 -0.07,0 -0.22,0.07 -0.24,0.11 -0.19,0.11 0,0.12 0,0.06 -0.12,0.19 0,0.06 -0.07,0.06 -0.06,0 0,0 -0.36,0.17 0,0 0,0 0,0 0,0.07 0,0 0,0 0,0 0,0 0.1,0.06 0,0 0,0 0,0.12 0,0.11 0,0.13 0,0.12 0,0.09 0,0 0,0.05 0,0 -0.05,0.09 -0.13,0.23 -0.19,0.18 0,0.13 0.06,0.12 0,0 -0.16,0.1 -0.12,0.27 -0.36,0.08 -0.19,0.26 0,0.39 -0.32,0.34 -0.53,-0.34 -0.3,-1.45 0,-0.12 0,-0.12 -0.1,-0.53 -0.08,-0.42 -0.5,-0.13 -0.26,-0.22 -0.18,0 -0.42,0 -1.18,-0.24 -0.39,-0.17 0,-0.14 0,-0.15 0.08,-0.31 0,-0.18 -0.07,-0.06 -0.38,-0.14 -0.13,0 -0.09,-0.1 -0.23,-0.45 -0.09,-0.22 0,-0.18 0,-0.18 0.07,-0.16 0.11,-0.12 0.34,-0.28 0,0 0.12,-0.14 0.06,-0.09 0,-0.13 0,-0.08 0,0 0,-0.11 -0.06,-0.07 -0.06,0 0,0 -0.18,0 -0.77,0.06 -0.35,0 0,0 -0.05,-0.09 0,-1 -0.06,-0.33 -0.13,-0.21 0,0 -0.09,-0.13 -0.33,-0.23 -0.2,-0.07 -0.21,0 -0.5,-0.09 -0.14,0.13 -0.23,0.19 -0.1,0.07 -0.08,0.05 -0.26,0.07 -0.25,0.05 -0.31,0 -0.19,-0.06 -0.54,-0.14 -0.3,0 -0.19,0 -0.18,0.06 -0.26,0.18 -0.16,0.21 -0.13,0.23 -0.19,0.24 -0.81,0.27 -0.32,0.07 -0.33,0 -0.5,-0.06 -0.17,0 -0.06,0 -0.05,0 -0.11,0.12 -0.25,0.11 -0.23,0.08 -0.29,0.06 -0.29,0 -0.16,-0.06 -0.16,-0.11 -0.09,-0.19 -0.09,-0.2 0,-0.17 0,-0.21 0.07,-0.2 0.15,-0.19 0.23,-0.13 0.23,-0.07 0.29,-0.06 0.31,-0.16 0.52,-0.44 0,-0.07 0,-0.08 0,-0.12 -0.05,-0.13 -0.34,-0.17 -0.13,0 -0.1,0 -0.17,0.06 -0.15,0.06 -0.28,0 -0.48,0 -0.18,0 -0.16,0.06 -0.2,0.06 -0.18,0.06 -0.14,0.08 -0.11,0.1 -0.14,0.17 -0.2,0.26 -0.1,0.08 -0.19,0.21 -0.1,0.16 0,0.09 0,0.07 0,0.09 0,0.06 0,0.08 -0.06,0.1 -0.08,0.08 -0.07,0.09 -0.09,0.18 -0.07,0.13 -0.06,0.12 -0.06,0.23 0,0.15 0.07,0.12 0.12,0.11 0.12,0.16 0.08,0.16 0,0.14 -0.07,0.17 -0.29,0.36 -0.1,0.1 -0.17,0.11 -0.11,0 -0.21,0 -0.22,0 -0.14,0 -0.09,-0.08 0,-0.14 0,0 0,-0.14 0,-0.25 -0.06,-0.08 -0.14,-0.06 0,0 -0.14,0 -0.09,0 -0.18,0 -0.3,0 -0.09,0 -0.07,0.06 0,0.12 0,0.42 0,0.71 -0.06,0.18 -0.13,0.13 -0.18,0.08 -0.16,0 -0.29,-0.1 -0.18,-0.11 -0.09,-0.09 -0.11,-0.18 -0.12,-0.14 -0.22,-0.2 -0.23,-0.1 -0.43,-0.11 -0.43,0 -0.17,0 -0.37,0.18 -0.42,0.2 -0.16,0.08 -0.16,0 -0.51,0 -0.36,0.06 -0.13,0 -0.1,0.08 0,0.09 -0.07,0.21 0,0.43 0,0.36 -0.14,0.39 -0.13,0.24 -0.27,0.28 -0.18,0.18 -0.26,0.13 -0.13,0 -0.13,0.08 0,0.08 0,0.16 0,0.18 0,0.13 0.2,0.55 0.09,0.21 0,0.22 -0.05,0.15 -0.14,0.19 -0.2,0.32 -0.22,0.24 -0.21,0.21 -0.34,0.24 -0.79,0.41 -0.54,0.26 -0.68,0.28 -0.76,0.16 0,-4 0,-1.78 0,-4.63 0,-0.1 0.06,0 0,0 0,-0.14 0,-0.9 -0.1,-0.08 0,-1.86 0,-0.37 -0.26,0 -0.06,0 0,0 0,0 0,0 0,0 0.16,0 0,0 0,0 0,-0.06 0,0 0,-0.06 -0.06,0 -0.13,0 -0.05,0 -0.07,0 -0.06,0 0,0 0,0 0,0.12 0,0 -0.16,0 -0.07,0 0,0 0,-0.07 0.06,-0.07 0,0 0,0 -0.08,-0.06 -0.07,-0.05 -0.1,-0.08 -0.07,0 -0.07,0.06 -0.07,0 -0.05,0 -0.09,0 0,0 -0.09,0 -0.06,0 -0.09,0 -0.09,0 0,0 0,0 0,-0.07 0,-0.06 0,-0.08 0.06,-0.06 0.09,0 0.16,0 0,-0.07 -0.41,-0.31 -0.13,0 -0.09,0 -0.11,0.06 -0.06,0 -0.06,0 0,0 0,0 0,0 0,0 -0.11,0 -0.06,0.05 -0.07,0.06 0,0 -0.31,0 -0.11,-0.06 -0.08,-0.07 -0.06,-0.06 -0.08,-0.12 -0.06,-0.14 0,-0.15 0,0 0,0 -0.06,0 -0.09,0 -0.46,0 -0.07,0 -0.07,0 0,0 0,-0.06 0,0 0.14,0 0.06,0 0,0 0,0 0,0 0,0 -0.06,0 -0.06,0 -0.09,0 -0.07,0 0,1.3 -6.5,-0.06 -0.08,0 0,-0.17 0,-1.44 0.08,-2.6 0,-2.14 0,-1.07 0,-4.54 -0.61,0 0,0 -0.09,0 -0.85,0.1 -0.45,0 -0.25,0 -0.69,0.06 -0.18,0 -0.45,-0.08 -0.34,-0.06 -0.3,0 -0.56,0 -3,0 -0.28,0 -0.29,0.1 -0.42,0.13 -0.21,0.06 -0.21,0.07 -0.07,-0.07 -0.27,-0.28 -0.19,-0.22 -0.63,-0.79 -0.71,-0.83 -0.32,-0.51 -0.06,-0.14 0,-0.1 -0.13,-0.5 -0.06,-0.38 0,-0.28 0,-0.22 0,-0.73 0,-0.22 0,-0.48 0,-0.24 0,-0.13 -0.06,-0.22 0,-0.11 0,-0.35 0,-0.25 0,-0.14 0,-0.55 0,-0.25 0,-0.39 0,-0.07 0,-0.06 -0.05,-0.06 -0.09,-0.08 -0.45,-0.24 -0.07,-0.05 -0.47,-0.22 -0.77,-0.42 -0.52,-0.25 -0.91,-0.43 -0.09,-0.05 -1.18,-2 -0.05,-0.05 -0.49,-0.6 -0.09,-0.56 0,-0.14 -0.08,-0.15 -0.2,-0.27 -0.13,-0.26 -0.15,-0.26 -0.14,-0.31 -0.3,-0.81 0,-0.2 0,-0.47 -0.05,-0.08 -0.24,-0.24 -0.19,-0.18 -0.24,-0.16 -0.16,-0.09 -0.19,-0.09 -0.24,-0.08 -0.29,-0.1 -0.39,-0.06 -0.22,0 -0.73,0 -0.22,0 -0.22,0 -0.8,-0.14 -0.21,-0.06 -0.18,-0.08 -0.17,-0.1 -0.19,-0.15 -0.23,-0.19 -0.33,-0.26 -0.09,3.82 0,0.64 0,2.2 0,4.19 -0.06,2.79 0,1.24 -0.24,9.82 0,0.26 0,2.35 0,0.12 0,1.46 0,0.6 0,0.31 0,0.41 0,0.08 0.05,0.49 0,0.07 -0.05,0.57 0,0.07 0,1.07 -0.12,3.62 0,0.11 0,0.61 0,3 0,0 0,1.48 0,0.36 0,2.4 0,0 0,0.63 0,0 0,0.85 0,0 0,0.54 -0.05,1.4 0,0.94 0,0.25 0,0 0,0.33 0,1.44 0,0.5 0,0.52 0.06,0.51 0,0.55 0,1 0,0.78 0,0.3 0,0.19 0,1.71 0,0.13 0,1.43 0,0 0,0.61 0,0.51 0,0.63 0,0 0,0.6 0,0 -0.11,2.34 0,0 0,1.05 0,0.06 0,0.93 -0.06,1.44 0,0.71 0,0.93 0,2.56 -0.07,3.09 0,2.45 0,0.55 0,0 0,2.8 0,1.79 0,0.06 0,0.95 0,2.71 0,0.52 0,1.11 0,2.56 0,0.8 0,4.4 0,2.68 0,2.4 0,1 0,3 0,1.16 0,1.3 0,0.89 0,6.55 0,1 0,0.78 0,1 0,1.18 0,0.09 0,1.28 0,0.83 0,2.55 0,0 0,0.29 0,1.67 0,2.7 0.24,-0.06 0.14,-0.08 0.16,-0.06 0.18,0 0.4,0.18 0.35,0.07 0.51,0.11 0.32,0 0.16,0 0.09,0.09 0,0.19 0,0.27 0.1,0.08 0.18,0 0.15,0 0.18,-0.13 0.21,-0.22 0.22,-0.41 0.11,-0.12 0.17,0 0.46,0 0.15,0.19 0.16,0.07 0.16,0 0.15,-0.09 0.05,-0.14 0.11,-0.68 0.81,-0.62 0.16,0.1 0.12,0 0.23,-0.1 0.13,0 0.17,-0.11 0.18,0 0.25,0.1 0.15,0 0.16,0 0.33,0.21 0.7,0.24 0.19,0 0.43,-0.42 0.17,0 0.24,-0.19 0.47,-0.05 0.34,-0.14 0.76,-0.42 0.47,-0.08 0.45,-0.27 0.62,-0.22 0.44,-0.23 -1.22,-0.43 0.11,-0.24 0,-0.2 0,-0.16 -0.17,-0.18 -0.06,-0.09 0.06,-0.09 0.06,-0.04 0.6,0 0.86,-0.51 0.12,0 0.25,0 0.22,0 0.18,0.1 0.16,0.18 0.06,0.18 4,-1.93 1.55,-0.78 0.52,-0.28 1.23,-0.62 1,-0.44 0.92,-0.42 1.51,-0.7 2.82,-1.28 2.16,-0.75 0,0 -0.08,-0.15 0,-0.34 -3.08,-5.41 -0.1,0 0.09,-0.09 0,-0.07 0,-0.08 0,0 0,0 0.11,0 0.68,-0.24 0.21,-0.1 0.07,-0.07 0,-0.09 0,-0.45 0,-0.19 0,-0.15 0,-0.11 0,-0.09 0,-0.07 0.07,-0.07 0.08,-0.08 0.12,-0.06 0.13,0 0.2,0 0.18,0 0.5,0.16 0.07,0 0.06,0 0.07,0 0.11,-0.05 0.09,-0.05 0.08,-0.07 0.06,-0.07 0,-0.07 0,-0.07 0,-0.18 0,-0.22 0,-0.22 0,0 0.1,-0.2 0.08,-0.13 0.06,-0.13 0.1,-0.28 0.08,-0.13 0.07,-0.13 0.09,-0.16 0.12,-0.18 0.08,-0.16 0,-0.07 0,-0.09 0,-0.47 -0.23,0 -0.13,0 -0.11,0.05 -0.08,0 -0.12,-0.05 -0.13,0 -0.14,0 -0.22,0 -0.25,0 -0.51,0 -0.19,0 -0.12,0 -0.1,-0.08 -0.09,-0.08 -0.09,-0.15 -0.06,-0.15 0,-0.21 0,-0.17 0,0 0.1,-0.15 0.17,-0.16 0.24,-0.12 0.21,-0.08 0.26,-0.05 0.22,0 0.16,-0.06 0.17,-0.09 0.16,-0.14 0.19,-0.15 0.08,-0.09 0,-0.17 0.06,-0.17 0,0 0.1,-0.09 0.07,-0.07 0.11,-0.13 0.07,-0.13 0,-0.13 0,-0.18 0,-0.12 0.07,-0.16 0.2,-0.16 1,-0.61 0.3,-0.24 0.18,-0.24 0.79,-0.34 0.13,-0.2 0,-0.06 0.1,-0.13 0.15,-0.21 0.13,-0.19 0.13,-0.15 0.15,-0.18 0.05,-0.17 0,-0.17 0,-0.12 0,-0.07 0,0 -0.07,-0.15 -0.52,-0.15 -0.06,-0.07 0,-0.1 0.1,-0.14 0.15,-0.15 0.19,-0.17 0.28,-0.18 0.22,-0.16 0.19,-0.21 0.11,-0.19 0.06,-0.21 0,-0.19 0,-0.18 0,-0.1 0.06,-0.09 0.07,0 0.12,-0.06 0.11,-0.08 0.07,-0.09 0.05,-0.08 0.07,-0.12 0.07,-0.12 0,-0.17 0,-0.13 3.89,0 0.81,-1.66 0.84,-3.62 0.4,-1.79 2.07,0.11 0,-1.55 0,-3.07 0,-0.07 0,-0.06 0,-0.06 0,-0.06 0,-0.11 0.07,-0.1 0.07,-0.07 0.67,-0.64 2.36,-2.21 0.56,-0.54 0.38,-0.39 1.55,-1.54 0.2,-0.2 0.2,-0.22 0.12,-0.15 0,-0.05 0.2,-0.31 0.11,-0.24 0.05,-0.1 0,-0.06 0.06,-0.24 0.06,-0.35 0,-0.31 0,-1.9 0,-0.6 0,-0.08 0,-0.07 0.1,-0.16 0.18,-0.23 0.12,-0.13 0.27,-0.26 0.09,-0.1 0.14,-0.15 0.09,-0.08 0.4,-0.39 0.25,-0.26 0.1,-0.09 0.22,-0.12 0.42,-0.22 0.23,-0.11 0.15,-0.07 1.31,-0.64 0.16,-0.08 0.78,-0.38 0.36,-0.17 0.1,0 0.13,0 0.15,0 0.2,0 5.53,0 0.13,0 0.22,-0.06 0.09,0 0.11,-0.07 0.07,0 0.08,-0.07 0,-0.06 0,-0.08 0,0 0,-0.08 0,-0.1 0,-4.73 0,-1 0,-1.62 0,-0.3 0,-0.13 0,-0.11 0.08,-0.24 0.19,-0.47 0.45,-1 0.26,-0.58 0.07,-0.15 0.07,-0.16 0.54,-1.17 0.09,-0.23 0.06,-0.14 0.06,-0.13 0,-0.07 0.12,-0.19 -0.25,0 -0.9,0 1.2,-1.17 0,-1.22 0.4,0.06 0.33,0 0.32,0 0.1,-0.2 0,-0.22 0,-0.46 0,-0.06 0,-0.16 0,-0.1 0,0 0,-0.06 0.08,-0.75 0,-0.07 0,-0.27 0,-0.11 0,-0.48 0,-0.45 0,-0.34 0,-0.3 0,-0.23 0.14,-0.52 0.06,-0.2 0.06,-0.12 0,-0.08 0,-0.1 0,-0.08 -0.06,-0.12 -0.06,-0.11 0,-0.11 0,-0.08 0,-0.09 0,-0.18 0.23,-0.91 0.06,-0.2 0.1,-0.47 0,-0.16 0,-0.12 0.14,-0.27 0.17,-0.27 0.2,-0.25 0,0 0.08,-0.18 0,-0.12 0,-0.11 0,-0.08 0,0 0,0 -0.09,-0.06 -0.21,-0.25 -0.06,-0.3 0.32,0.06 0.18,0.18 0.12,-0.06 1.65,-0.79"
       transform="translate(-148.49,-252.36)"
       id="path3638"
       style="fill:#51459c;stroke:#010101;stroke-width:1;stroke-linecap:square;stroke-linejoin:bevel;stroke-miterlimit:4;stroke-dasharray:none"
       name="Grand Prairie ISD"
       inkscape:connector-curvature="0" />
    <path
       class="cls-1"
       d="m 208,272.27 -0.21,-0.14 -0.17,-0.12 -8.62,-0.11 -8.1,0 -2,0 -1.23,0 -0.17,0 -8.6,0 -1.74,0 -21.41,0 -0.78,0 -0.13,0 -1.12,0 0,0 0,0.1 0,1.07 0,0.37 0,0.94 0,0 0,0.18 0,0 0,2.44 -0.08,4.58 0,0.07 0,1.91 0,1.78 0,4.57 0,5.77 2.27,0.09 0,0 2.51,0.37 0.2,0 0.41,0.1 0.51,0.1 0,0 0.17,0.13 0,0.32 0,0.1 0,0.24 0,0.07 0,1.24 -0.07,0.52 0.16,0.84 0.11,1.3 0.09,1.09 0,0.13 -0.11,0.2 0,0.13 0.22,0.61 0,0 0.13,0.06 0.82,0 0.11,0 0,0.78 0,1.9 0,4 -0.22,0.69 0,0.11 0.07,1 0,1 -7.53,0 0,1.2 0,1.81 -0.08,3.1 0,3.8 2.55,0.06 0,-0.55 3.88,0.06 5.43,0.09 0,0.92 0,2.53 6,0 1,0 0.09,0.08 0,1.06 0,0.08 0.06,4.13 0,0.83 2.66,0 6.91,0 0,-1.2 0.12,-1.63 0,0 0,0 -0.11,-2.17 0,-0.88 0.93,0 0,-4.41 0,0 0,-2.12 0,-0.07 0,0 0.06,-0.43 0,-2.54 0,0 0,0 0.08,-1.48 0,-0.05 0,-0.23 0,-0.24 0.27,0 0.72,0 0.06,-0.27 0,-0.19 1,-0.13 0.09,0.07 0,-0.03 2,-0.07 0.63,0 0.07,0 1.24,0 0,-0.06 0,-0.23 0,-0.93 0,-3.76 0.6,0 2.76,0 0.77,0 1.56,0.08 0.88,-0.07 0.71,0 0.32,0 0.27,0 4.64,0 0.11,-0.1 0,-7.86 -2.16,0 0,-1.09 0,-0.07 0,-0.12 0,-0.11 0,-0.25 0,-1.05 0,-0.14 -1.26,0 -1.11,0 0,-8.65 0,-1.4 0,-0.88 0,-0.21 0,-0.67 0,-2.77 1.75,0 0.14,0 1.57,-0.07 0.43,0 0,0 -0.08,0.09 0,0.05 0,0.07 0,0.06 0,0.21 1.1,0 0.33,0 0,-0.26 0,-0.08 0,-0.1 0,-1.11 0,-1.22 0.79,0 2.25,0 5.18,0 0,-0.06 0.2,-0.44 0.11,-0.24 0,-0.16 0.17,-0.94 0,-0.21 -0.06,-0.17 -0.09,-0.17 -0.12,-0.13 -0.2,-0.11 -0.18,0 -0.92,-0.13 -0.15,-0.07 -0.12,-0.1 -0.07,-0.12 0,-0.15 0.06,-0.17 0.14,-0.11 0.93,-0.5 0.13,0 0.15,0 0.46,0 0.18,-0.07 0.09,-0.11 0.08,-0.13 0,-0.14 0,-0.17 0,-0.16 -0.06,-0.23 -0.06,-0.13 -0.16,-0.13 -0.24,-0.07 -0.28,0 -0.24,0.06 -0.34,0.07 -0.35,0 -0.41,0 -0.34,-0.07 -0.33,-0.1 -0.23,-0.11 -0.21,-0.18 -0.11,-0.14 -0.06,-0.2 0,-0.24 0.07,-0.18 0.07,-0.13 0,-0.2 0,-0.21 0,-0.25 0,-0.18 0,-0.64 -0.07,-0.18 0,-0.11 0,-0.08 0,-0.13 0,-0.16 0,-0.09 -0.11,-0.2"
       transform="translate(-148.49,-252.36)"
       id="path3640"
       style="fill:#51459c;stroke:#010101;stroke-width:1;stroke-linecap:square;stroke-linejoin:bevel;stroke-miterlimit:4;stroke-dasharray:none"
       name="Coppell ISD"
       inkscape:connector-curvature="0" />
  </g>
</svg>
